<?xml version="1.0" standalone="no"?><!DOCTYPE svg PUBLIC "-//W3C//DTD SVG 1.1//EN" "http://www.w3.org/Graphics/SVG/1.1/DTD/svg11.dtd"><svg xmlns="http://www.w3.org/2000/svg" viewBox="0 0 650 400" version="1.1"><clipPath id="box"><rect x="0" y="0" width="650" height="400" style="fill:none;stroke:none;" /></clipPath><g clip-path="url(#box)"><rect x="0.00" y="0.00" width="650.00" height="400.00" style="fill:#FFFFFF;stroke:none;" /><path d="M0.00 360.00 L650.00 360.00 M0.00 280.00 L650.00 280.00 M0.00 200.00 L650.00 200.00 M0.00 119.00 L650.00 119.00 M0.00 39.00 L650.00 39.00 M4.00 0.00 L4.00 400.00 M84.00 0.00 L84.00 400.00 M164.00 0.00 L164.00 400.00 M245.00 0.00 L245.00 400.00 M325.00 0.00 L325.00 400.00 M405.00 0.00 L405.00 400.00 M485.00 0.00 L485.00 400.00 M565.00 0.00 L565.00 400.00 M645.00 0.00 L645.00 400.00 " style="fill:none;stroke:#D0D0D0;stroke-width:1;" /><path d="M325.00 0.00 L325.00 400.00 " style="fill:none;stroke:#000000;stroke-width:1;" /><path d="M318.50 440.00 L331.50 440.00 M318.50 360.00 L331.50 360.00 M318.50 280.00 L331.50 280.00 M318.50 200.00 L331.50 200.00 M318.50 120.00 L331.50 120.00 M318.50 40.00 L331.50 40.00 " style="fill:none;stroke:#000000;stroke-width:1;" /><path d="M0.00 200.00 L650.00 200.00 " style="fill:none;stroke:#000000;stroke-width:1;" /><path d="M-75.00 193.50 L-75.00 206.50 M5.00 193.50 L5.00 206.50 M85.00 193.50 L85.00 206.50 M165.00 193.50 L165.00 206.50 M245.00 193.50 L245.00 206.50 M325.00 193.50 L325.00 206.50 M405.00 193.50 L405.00 206.50 M485.00 193.50 L485.00 206.50 M565.00 193.50 L565.00 206.50 M645.00 193.50 L645.00 206.50 " style="fill:none;stroke:#000000;stroke-width:1;" /><text x="333.125" y="362.50000000000006" text-anchor="start" style="font:10px Droid Sans,Trebuchet MS,Arial,Helvetica,sans-serif;stroke:none;fill:#000000">-4</text><text x="333.125" y="282.5" text-anchor="start" style="font:10px Droid Sans,Trebuchet MS,Arial,Helvetica,sans-serif;stroke:none;fill:#000000">-2</text><text x="333.125" y="202.5" text-anchor="start" style="font:10px Droid Sans,Trebuchet MS,Arial,Helvetica,sans-serif;stroke:none;fill:#000000">0</text><text x="333.125" y="122.49999999999997" text-anchor="start" style="font:10px Droid Sans,Trebuchet MS,Arial,Helvetica,sans-serif;stroke:none;fill:#000000">2</text><text x="333.125" y="42.49999999999994" text-anchor="start" style="font:10px Droid Sans,Trebuchet MS,Arial,Helvetica,sans-serif;stroke:none;fill:#000000">4</text><text x="84.99999999999996" y="216.125" text-anchor="middle" style="font:10px Droid Sans,Trebuchet MS,Arial,Helvetica,sans-serif;stroke:none;fill:#000000">-6</text><text x="164.99999999999994" y="216.125" text-anchor="middle" style="font:10px Droid Sans,Trebuchet MS,Arial,Helvetica,sans-serif;stroke:none;fill:#000000">-4</text><text x="245" y="216.125" text-anchor="middle" style="font:10px Droid Sans,Trebuchet MS,Arial,Helvetica,sans-serif;stroke:none;fill:#000000">-2</text><text x="325" y="216.125" text-anchor="middle" style="font:10px Droid Sans,Trebuchet MS,Arial,Helvetica,sans-serif;stroke:none;fill:#000000">0</text><text x="405" y="216.125" text-anchor="middle" style="font:10px Droid Sans,Trebuchet MS,Arial,Helvetica,sans-serif;stroke:none;fill:#000000">2</text><text x="485" y="216.125" text-anchor="middle" style="font:10px Droid Sans,Trebuchet MS,Arial,Helvetica,sans-serif;stroke:none;fill:#000000">4</text><text x="565.0000000000001" y="216.125" text-anchor="middle" style="font:10px Droid Sans,Trebuchet MS,Arial,Helvetica,sans-serif;stroke:none;fill:#000000">6</text><path d="M85.00 400.00 L85.00 400.00 L86.00 399.00 L87.00 398.00 L88.00 397.00 L89.00 396.00 L90.00 395.00 L91.00 394.00 L92.00 393.00 L93.00 392.00 L94.00 391.00 L95.00 390.00 L96.00 389.00 L97.00 388.00 L98.00 387.00 L99.00 386.00 L100.00 385.00 L101.00 384.00 L102.00 383.00 L103.00 382.00 L104.00 381.00 L105.00 380.00 L106.00 379.00 L107.00 378.00 L108.00 377.00 L109.00 376.00 L110.00 375.00 L111.00 374.00 L112.00 373.00 L113.00 372.00 L114.00 371.00 L115.00 370.00 L116.00 369.00 L117.00 368.00 L118.00 367.00 L119.00 366.00 L120.00 365.00 L121.00 364.00 L122.00 363.00 L123.00 362.00 L124.00 361.00 L125.00 360.00 L126.00 359.00 L127.00 358.00 L128.00 357.00 L129.00 356.00 L130.00 355.00 L131.00 354.00 L132.00 353.00 L133.00 352.00 L134.00 351.00 L135.00 350.00 L136.00 349.00 L137.00 348.00 L138.00 347.00 L139.00 346.00 L140.00 345.00 L141.00 344.00 L142.00 343.00 L143.00 342.00 L144.00 341.00 L145.00 340.00 L146.00 339.00 L147.00 338.00 L148.00 337.00 L149.00 336.00 L150.00 335.00 L151.00 334.00 L152.00 333.00 L153.00 332.00 L154.00 331.00 L155.00 330.00 L156.00 329.00 L157.00 328.00 L158.00 327.00 L159.00 326.00 L160.00 325.00 L161.00 324.00 L162.00 323.00 L163.00 322.00 L164.00 321.00 L165.00 320.00 L166.00 319.00 L167.00 318.00 L168.00 317.00 L169.00 316.00 L170.00 315.00 L171.00 314.00 L172.00 313.00 L173.00 312.00 L174.00 311.00 L175.00 310.00 L176.00 309.00 L177.00 308.00 L178.00 307.00 L179.00 306.00 L180.00 305.00 L181.00 304.00 L182.00 303.00 L183.00 302.00 L184.00 301.00 L185.00 300.00 L186.00 299.00 L187.00 298.00 L188.00 297.00 L189.00 296.00 L190.00 295.00 L191.00 294.00 L192.00 293.00 L193.00 292.00 L194.00 291.00 L195.00 290.00 L196.00 289.00 L197.00 288.00 L198.00 287.00 L199.00 286.00 L200.00 285.00 L201.00 284.00 L202.00 283.00 L203.00 282.00 L204.00 281.00 L205.00 280.00 L206.00 279.00 L207.00 278.00 L208.00 277.00 L209.00 276.00 L210.00 275.00 L211.00 274.00 L212.00 273.00 L213.00 272.00 L214.00 271.00 L215.00 270.00 L216.00 269.00 L217.00 268.00 L218.00 267.00 L219.00 266.00 L220.00 265.00 L221.00 264.00 L222.00 263.00 L223.00 262.00 L224.00 261.00 L225.00 260.00 L226.00 259.00 L227.00 258.00 L228.00 257.00 L229.00 256.00 L230.00 255.00 L231.00 254.00 L232.00 253.00 L233.00 252.00 L234.00 251.00 L235.00 250.00 L236.00 249.00 L237.00 248.00 L238.00 247.00 L239.00 246.00 L240.00 245.00 L241.00 244.00 L242.00 243.00 L243.00 242.00 L244.00 241.00 L245.00 240.00 L246.00 239.00 L247.00 238.00 L248.00 237.00 L249.00 236.00 L250.00 235.00 L251.00 234.00 L252.00 233.00 L253.00 232.00 L254.00 231.00 L255.00 230.00 L256.00 229.00 L257.00 228.00 L258.00 227.00 L259.00 226.00 L260.00 225.00 L261.00 224.00 L262.00 223.00 L263.00 222.00 L264.00 221.00 L265.00 220.00 L266.00 219.00 L267.00 218.00 L268.00 217.00 L269.00 216.00 L270.00 215.00 L271.00 214.00 L272.00 213.00 L273.00 212.00 L274.00 211.00 L275.00 210.00 L276.00 209.00 L277.00 208.00 L278.00 207.00 L279.00 206.00 L280.00 205.00 L281.00 204.00 L282.00 203.00 L283.00 202.00 L284.00 201.00 L285.00 200.00 L286.00 199.00 L287.00 198.00 L288.00 197.00 L289.00 196.00 L290.00 195.00 L291.00 194.00 L292.00 193.00 L293.00 192.00 L294.00 191.00 L295.00 190.00 L296.00 189.00 L297.00 188.00 L298.00 187.00 L299.00 186.00 L300.00 185.00 L301.00 184.00 L302.00 183.00 L303.00 182.00 L304.00 181.00 L305.00 180.00 L306.00 179.00 L307.00 178.00 L308.00 177.00 L309.00 176.00 L310.00 175.00 L311.00 174.00 L312.00 173.00 L313.00 172.00 L314.00 171.00 L315.00 170.00 L316.00 169.00 L317.00 168.00 L318.00 167.00 L319.00 166.00 L320.00 165.00 L321.00 164.00 L322.00 163.00 L323.00 162.00 L324.00 161.00 L325.00 160.00 L326.00 159.00 L327.00 158.00 L328.00 157.00 L329.00 156.00 L330.00 155.00 L331.00 154.00 L332.00 153.00 L333.00 152.00 L334.00 151.00 L335.00 150.00 L336.00 149.00 L337.00 148.00 L338.00 147.00 L339.00 146.00 L340.00 145.00 L341.00 144.00 L342.00 143.00 L343.00 142.00 L344.00 141.00 L345.00 140.00 L346.00 139.00 L347.00 138.00 L348.00 137.00 L349.00 136.00 L350.00 135.00 L351.00 134.00 L352.00 133.00 L353.00 132.00 L354.00 131.00 L355.00 130.00 L356.00 129.00 L357.00 128.00 L358.00 127.00 L359.00 126.00 L360.00 125.00 L361.00 124.00 L362.00 123.00 L363.00 122.00 L364.00 121.00 L365.00 120.00 L366.00 119.00 L367.00 118.00 L368.00 117.00 L369.00 116.00 L370.00 115.00 L371.00 114.00 L372.00 113.00 L373.00 112.00 L374.00 111.00 L375.00 110.00 L376.00 109.00 L377.00 108.00 L378.00 107.00 L379.00 106.00 L380.00 105.00 L381.00 104.00 L382.00 103.00 L383.00 102.00 L384.00 101.00 L385.00 100.00 L386.00 99.00 L387.00 98.00 L388.00 97.00 L389.00 96.00 L390.00 95.00 L391.00 94.00 L392.00 93.00 L393.00 92.00 L394.00 91.00 L395.00 90.00 L396.00 89.00 L397.00 88.00 L398.00 87.00 L399.00 86.00 L400.00 85.00 L401.00 84.00 L402.00 83.00 L403.00 82.00 L404.00 81.00 L405.00 80.00 L406.00 79.00 L407.00 78.00 L408.00 77.00 L409.00 76.00 L410.00 75.00 L411.00 74.00 L412.00 73.00 L413.00 72.00 L414.00 71.00 L415.00 70.00 L416.00 69.00 L417.00 68.00 L418.00 67.00 L419.00 66.00 L420.00 65.00 L421.00 64.00 L422.00 63.00 L423.00 62.00 L424.00 61.00 L425.00 60.00 L426.00 59.00 L427.00 58.00 L428.00 57.00 L429.00 56.00 L430.00 55.00 L431.00 54.00 L432.00 53.00 L433.00 52.00 L434.00 51.00 L435.00 50.00 L436.00 49.00 L437.00 48.00 L438.00 47.00 L439.00 46.00 L440.00 45.00 L441.00 44.00 L442.00 43.00 L443.00 42.00 L444.00 41.00 L445.00 40.00 L446.00 39.00 L447.00 38.00 L448.00 37.00 L449.00 36.00 L450.00 35.00 L451.00 34.00 L452.00 33.00 L453.00 32.00 L454.00 31.00 L455.00 30.00 L456.00 29.00 L457.00 28.00 L458.00 27.00 L459.00 26.00 L460.00 25.00 L461.00 24.00 L462.00 23.00 L463.00 22.00 L464.00 21.00 L465.00 20.00 L466.00 19.00 L467.00 18.00 L468.00 17.00 L469.00 16.00 L470.00 15.00 L471.00 14.00 L472.00 13.00 L473.00 12.00 L474.00 11.00 L475.00 10.00 L476.00 9.00 L477.00 8.00 L478.00 7.00 L479.00 6.00 L480.00 5.00 L481.00 4.00 L482.00 3.00 L483.00 2.00 L484.00 1.00 L485.00 -0.00 " style="fill:none;stroke:#000000;stroke-width:1;" /><path d="M5.00 400.00 L5.00 400.00 L6.00 399.00 L7.00 398.00 L8.00 397.00 L9.00 396.00 L10.00 395.00 L11.00 394.00 L12.00 393.00 L13.00 392.00 L14.00 391.00 L15.00 390.00 L16.00 389.00 L17.00 388.00 L18.00 387.00 L19.00 386.00 L20.00 385.00 L21.00 384.00 L22.00 383.00 L23.00 382.00 L24.00 381.00 L25.00 380.00 L26.00 379.00 L27.00 378.00 L28.00 377.00 L29.00 376.00 L30.00 375.00 L31.00 374.00 L32.00 373.00 L33.00 372.00 L34.00 371.00 L35.00 370.00 L36.00 369.00 L37.00 368.00 L38.00 367.00 L39.00 366.00 L40.00 365.00 L41.00 364.00 L42.00 363.00 L43.00 362.00 L44.00 361.00 L45.00 360.00 L46.00 359.00 L47.00 358.00 L48.00 357.00 L49.00 356.00 L50.00 355.00 L51.00 354.00 L52.00 353.00 L53.00 352.00 L54.00 351.00 L55.00 350.00 L56.00 349.00 L57.00 348.00 L58.00 347.00 L59.00 346.00 L60.00 345.00 L61.00 344.00 L62.00 343.00 L63.00 342.00 L64.00 341.00 L65.00 340.00 L66.00 339.00 L67.00 338.00 L68.00 337.00 L69.00 336.00 L70.00 335.00 L71.00 334.00 L72.00 333.00 L73.00 332.00 L74.00 331.00 L75.00 330.00 L76.00 329.00 L77.00 328.00 L78.00 327.00 L79.00 326.00 L80.00 325.00 L81.00 324.00 L82.00 323.00 L83.00 322.00 L84.00 321.00 L85.00 320.00 L86.00 319.00 L87.00 318.00 L88.00 317.00 L89.00 316.00 L90.00 315.00 L91.00 314.00 L92.00 313.00 L93.00 312.00 L94.00 311.00 L95.00 310.00 L96.00 309.00 L97.00 308.00 L98.00 307.00 L99.00 306.00 L100.00 305.00 L101.00 304.00 L102.00 303.00 L103.00 302.00 L104.00 301.00 L105.00 300.00 L106.00 299.00 L107.00 298.00 L108.00 297.00 L109.00 296.00 L110.00 295.00 L111.00 294.00 L112.00 293.00 L113.00 292.00 L114.00 291.00 L115.00 290.00 L116.00 289.00 L117.00 288.00 L118.00 287.00 L119.00 286.00 L120.00 285.00 L121.00 284.00 L122.00 283.00 L123.00 282.00 L124.00 281.00 L125.00 280.00 L126.00 279.00 L127.00 278.00 L128.00 277.00 L129.00 276.00 L130.00 275.00 L131.00 274.00 L132.00 273.00 L133.00 272.00 L134.00 271.00 L135.00 270.00 L136.00 269.00 L137.00 268.00 L138.00 267.00 L139.00 266.00 L140.00 265.00 L141.00 264.00 L142.00 263.00 L143.00 262.00 L144.00 261.00 L145.00 260.00 L146.00 259.00 L147.00 258.00 L148.00 257.00 L149.00 256.00 L150.00 255.00 L151.00 254.00 L152.00 253.00 L153.00 252.00 L154.00 251.00 L155.00 250.00 L156.00 249.00 L157.00 248.00 L158.00 247.00 L159.00 246.00 L160.00 245.00 L161.00 244.00 L162.00 243.00 L163.00 242.00 L164.00 241.00 L165.00 240.00 L166.00 239.00 L167.00 238.00 L168.00 237.00 L169.00 236.00 L170.00 235.00 L171.00 234.00 L172.00 233.00 L173.00 232.00 L174.00 231.00 L175.00 230.00 L176.00 229.00 L177.00 228.00 L178.00 227.00 L179.00 226.00 L180.00 225.00 L181.00 224.00 L182.00 223.00 L183.00 222.00 L184.00 221.00 L185.00 220.00 L186.00 219.00 L187.00 218.00 L188.00 217.00 L189.00 216.00 L190.00 215.00 L191.00 214.00 L192.00 213.00 L193.00 212.00 L194.00 211.00 L195.00 210.00 L196.00 209.00 L197.00 208.00 L198.00 207.00 L199.00 206.00 L200.00 205.00 L201.00 204.00 L202.00 203.00 L203.00 202.00 L204.00 201.00 L205.00 200.00 L206.00 199.00 L207.00 198.00 L208.00 197.00 L209.00 196.00 L210.00 195.00 L211.00 194.00 L212.00 193.00 L213.00 192.00 L214.00 191.00 L215.00 190.00 L216.00 189.00 L217.00 188.00 L218.00 187.00 L219.00 186.00 L220.00 185.00 L221.00 184.00 L222.00 183.00 L223.00 182.00 L224.00 181.00 L225.00 180.00 L226.00 179.00 L227.00 178.00 L228.00 177.00 L229.00 176.00 L230.00 175.00 L231.00 174.00 L232.00 173.00 L233.00 172.00 L234.00 171.00 L235.00 170.00 L236.00 169.00 L237.00 168.00 L238.00 167.00 L239.00 166.00 L240.00 165.00 L241.00 164.00 L242.00 163.00 L243.00 162.00 L244.00 161.00 L245.00 160.00 L246.00 159.00 L247.00 158.00 L248.00 157.00 L249.00 156.00 L250.00 155.00 L251.00 154.00 L252.00 153.00 L253.00 152.00 L254.00 151.00 L255.00 150.00 L256.00 149.00 L257.00 148.00 L258.00 147.00 L259.00 146.00 L260.00 145.00 L261.00 144.00 L262.00 143.00 L263.00 142.00 L264.00 141.00 L265.00 140.00 L266.00 139.00 L267.00 138.00 L268.00 137.00 L269.00 136.00 L270.00 135.00 L271.00 134.00 L272.00 133.00 L273.00 132.00 L274.00 131.00 L275.00 130.00 L276.00 129.00 L277.00 128.00 L278.00 127.00 L279.00 126.00 L280.00 125.00 L281.00 124.00 L282.00 123.00 L283.00 122.00 L284.00 121.00 L285.00 120.00 L286.00 119.00 L287.00 118.00 L288.00 117.00 L289.00 116.00 L290.00 115.00 L291.00 114.00 L292.00 113.00 L293.00 112.00 L294.00 111.00 L295.00 110.00 L296.00 109.00 L297.00 108.00 L298.00 107.00 L299.00 106.00 L300.00 105.00 L301.00 104.00 L302.00 103.00 L303.00 102.00 L304.00 101.00 L305.00 100.00 L306.00 99.00 L307.00 98.00 L308.00 97.00 L309.00 96.00 L310.00 95.00 L311.00 94.00 L312.00 93.00 L313.00 92.00 L314.00 91.00 L315.00 90.00 L316.00 89.00 L317.00 88.00 L318.00 87.00 L319.00 86.00 L320.00 85.00 L321.00 84.00 L322.00 83.00 L323.00 82.00 L324.00 81.00 L325.00 80.00 L326.00 79.00 L327.00 78.00 L328.00 77.00 L329.00 76.00 L330.00 75.00 L331.00 74.00 L332.00 73.00 L333.00 72.00 L334.00 71.00 L335.00 70.00 L336.00 69.00 L337.00 68.00 L338.00 67.00 L339.00 66.00 L340.00 65.00 L341.00 64.00 L342.00 63.00 L343.00 62.00 L344.00 61.00 L345.00 60.00 L346.00 59.00 L347.00 58.00 L348.00 57.00 L349.00 56.00 L350.00 55.00 L351.00 54.00 L352.00 53.00 L353.00 52.00 L354.00 51.00 L355.00 50.00 L356.00 49.00 L357.00 48.00 L358.00 47.00 L359.00 46.00 L360.00 45.00 L361.00 44.00 L362.00 43.00 L363.00 42.00 L364.00 41.00 L365.00 40.00 L366.00 39.00 L367.00 38.00 L368.00 37.00 L369.00 36.00 L370.00 35.00 L371.00 34.00 L372.00 33.00 L373.00 32.00 L374.00 31.00 L375.00 30.00 L376.00 29.00 L377.00 28.00 L378.00 27.00 L379.00 26.00 L380.00 25.00 L381.00 24.00 L382.00 23.00 L383.00 22.00 L384.00 21.00 L385.00 20.00 L386.00 19.00 L387.00 18.00 L388.00 17.00 L389.00 16.00 L390.00 15.00 L391.00 14.00 L392.00 13.00 L393.00 12.00 L394.00 11.00 L395.00 10.00 L396.00 9.00 L397.00 8.00 L398.00 7.00 L399.00 6.00 L400.00 5.00 L401.00 4.00 L402.00 3.00 L403.00 2.00 L404.00 1.00 L405.00 0.00 L406.00 -1.00 " style="fill:none;stroke:#000000;stroke-width:1;" /></g></svg>