<svg width="650" height="400" xmlns="http://www.w3.org/2000/svg">
 <clipPath id="box">
  <rect id="svg_1" fill="none" height="400" width="650" y="0" x="0"/>
 </clipPath>

 <g>
  <title>background</title>
  <rect fill="none" id="canvas_background" height="402" width="582" y="-1" x="-1"/>
 </g>
 <g>
  <title>Layer 1</title>
  <g id="svg_2" clip-path="url(#box)">
   <rect id="svg_3" fill="#F2F2F2" height="400" width="650" y="0" x="0"/>
   <path id="svg_4" fill="none" stroke="#D0D0D0" d="m0,381l650,0m-650,-62l650,0m-650,-63l650,0m-650,-62l650,0m-650,-63l650,0m-650,-62l650,0m-650,-63l650,0m-590,-6l0,400m63,-400l0,400m62,-400l0,400m63,-400l0,400m62,-400l0,400m63,-400l0,400m62,-400l0,400m63,-400l0,400m62,-400l0,400m63,-400l0,400"/>
   <path id="svg_5" fill="none" stroke="#000000" d="m248.25,0l0,400"/>
   <path id="svg_6" fill="none" stroke="#000000" d="m241.75,444.25l13,0m-13,-62.5l13,0m-13,-62.5l13,0m-13,-62.5l13,0m-13,-62.5l13,0m-13,-62.5l13,0m-13,-62.5l13,0m-13,-62.5l13,0"/>
   <path id="svg_7" fill="none" stroke="#000000" d="m0,256.75l650,0"/>
   <path id="svg_8" fill="none" stroke="#000000" d="m-1.75,250.25l0,13m62.5,-13l0,13m62.5,-13l0,13m62.5,-13l0,13m62.5,-13l0,13m62.5,-13l0,13m62.5,-13l0,13m62.5,-13l0,13m62.5,-13l0,13m62.5,-13l0,13m62.5,-13l0,13"/>
   <text id="svg_9" fill="#000000" text-anchor="start" y="384.25" x="256.375">-2</text>
   <text id="svg_10" fill="#000000" text-anchor="start" y="321.75" x="256.375">-1</text>
   <text id="svg_11" fill="#000000" text-anchor="start" y="259.25" x="256.375">0</text>
   <text id="svg_12" fill="#000000" text-anchor="start" y="196.75" x="256.375">1</text>
   <text id="svg_13" fill="#000000" text-anchor="start" y="134.25" x="256.375">2</text>
   <text id="svg_14" fill="#000000" text-anchor="start" y="71.75" x="256.375">3</text>
   <text id="svg_15" fill="#000000" text-anchor="middle" y="272.875" x="60.75">-3</text>
   <text id="svg_16" fill="#000000" text-anchor="middle" y="272.875" x="123.25">-2</text>
   <text id="svg_17" fill="#000000" text-anchor="middle" y="272.875" x="185.75">-1</text>
   <text id="svg_18" fill="#000000" text-anchor="middle" y="272.875" x="248.25">0</text>
   <text id="svg_19" fill="#000000" text-anchor="middle" y="272.875" x="310.75">1</text>
   <text id="svg_20" fill="#000000" text-anchor="middle" y="272.875" x="373.25">2</text>
   <text id="svg_21" fill="#000000" text-anchor="middle" y="272.875" x="435.75">3</text>
   <text id="svg_22" fill="#000000" text-anchor="middle" y="272.875" x="498.25">4</text>
   <text id="svg_23" fill="#000000" text-anchor="middle" y="272.875" x="560.75">5</text>
   <text id="svg_24" fill="#000000" text-anchor="middle" y="272.875" x="623.25">6</text>
   <path id="svg_25" fill="none" stroke="#000000" d="m42.5,400l0,0l1,-1l1,-1l1,-1l1,-1l1,-1l1,-1l1,-1l1,-1l1,-1l1,-1l1,-1l1,-1l1,-1l1,-1l1,-1l1,-1l1,-1l1,-1l1,-1l1,-1l1,-1l1,-1l1,-1l1,-1l1,-1l1,-1l1,-1l1,-1l1,-1l1,-1l1,-1l1,-1l1,-1l1,-1l1,-1l1,-1l1,-1l1,-1l1,-1l1,-1l1,-1l1,-1l1,-1l1,-1l1,-1l1,-1l1,-1l1,-1l1,-1l1,-1l1,-1l1,-1l1,-1l1,-1l1,-1l1,-1l1,-1l1,-1l1,-1l1,-1l1,-1l1,-1l1,-1l1,-1l1,-1l1,-1l1,-1l1,-1l1,-1l1,-1l1,-1l1,-1l1,-1l1,-1l1,-1l1,-1l1,-1l1,-1l1,-1l1,-1l1,-1l1,-1l1,-1l1,-1l1,-1l1,-1l1,-1l1,-1l1,-1l1,-1l1,-1l1,-1l1,-1l1,-1l1,-1l1,-1l1,-1l1,-1l1,-1l1,-1l1,-1l1,-1l1,-1l1,-1l1,-1l1,-1l1,-1l1,-1l1,-1l1,-1l1,-1l1,-1l1,-1l1,-1l1,-1l1,-1l1,-1l1,-1l1,-1l1,-1l1,-1l1,-1l1,-1l1,-1l1,-1l1,-1l1,-1l1,-1l1,-1l1,-1l1,-1l1,-1l1,-1l1,-1l1,-1l1,-1l1,-1l1,-1l1,-1l1,-1l1,-1l1,-1l1,-1l1,-1l1,-1l1,-1l1,-1l1,-1l1,-1l1,-1l1,-1l1,-1l1,-1l1,-1l1,-1l1,-1l1,-1l1,-1l1,-1l1,-1l1,-1l1,-1l1,-1l1,-1l1,-1l1,-1l1,-1l1,-1l1,-1l1,-1l1,-1l1,-1l1,-1l1,-1l1,-1l1,-1l1,-1l1,-1l1,-1l1,-1l1,-1l1,-1l1,-1l1,-1l1,-1l1,-1l1,-1l1,-1l1,-1l1,-1l1,-1l1,-1l1,-1l1,-1l1,-1l1,-1l1,-1l1,-1l1,-1l1,-1l1,-1l1,-1l1,-1l1,-1l1,-1l1,-1l1,-1l1,-1l1,-1l1,-1l1,-1l1,-1l1,-1l1,-1l1,-1l1,-1l1,-1l1,-1l1,-1l1,-1l1,-1l1,-1l1,-1l1,-1l1,-1l1,-1l1,-1l1,-1l1,-1l1,-1l1,-1l1,-1l1,-1l1,-1l1,-1l1,-1l1,-1l1,-1l1,-1l1,-1l1,-1l1,-1l1,-1l1,-1l1,-1l1,-1l1,-1l1,-1l1,-1l1,-1l1,-1l1,-1l1,-1l1,-1l1,-1l1,-1l1,-1l1,-1l1,-1l1,-1l1,-1l1,-1l1,-1l1,-1l1,-1l1,-1l1,-1l1,-1l1,-1l1,-1l1,-1l1,-1l1,-1l1,-1l1,-1l1,-1l1,-1l1,-1l1,-1l1,-1l1,-1l1,-1l1,-1l1,-1l1,-1l1,-1l1,-1l1,-1l1,-1l1,-1l1,-1l1,-1l1,-1l1,-1l1,-1l1,-1l1,-1l1,-1l1,-1l1,-1l1,-1l1,-1l1,-1l1,-1l1,-1l1,-1l1,-1l1,-1l1,-1l1,-1l1,-1l1,-1l1,-1l1,-1l1,-1l1,-1l1,-1l1,-1l1,-1l1,-1l1,-1l1,-1l1,-1l1,-1l1,-1l1,-1l1,-1l1,-1l1,-1l1,-1l1,-1l1,-1l1,-1l1,-1l1,-1l1,-1l1,-1l1,-1l1,-1l1,-1l1,-1l1,-1l1,-1l1,-1l1,-1l1,-1l1,-1l1,-1l1,-1l1,-1l1,-1l1,-1l1,-1l1,-1l1,-1l1,-1l1,-1l1,-1l1,-1l1,-1l1,-1l1,-1l1,-1l1,-1l1,-1l1,-1l1,-1l1,-1l1,-1l1,-1l1,-1l1,-1l1,-1l1,-1l1,-1l1,-1l1,-1l1,-1l1,-1l1,-1l1,-1l1,-1l1,-1l1,-1l1,-1l1,-1l1,-1l1,-1l1,-1l1,-1l1,-1l1,-1l1,-1l1,-1l1,-1l1,-1l1,-1l1,-1l1,-1l1,-1l1,-1"/>
   <path id="svg_26" fill="none" stroke="#000000" d="m179,0l0,0l1,1l1,1l1,1l1,1l1,1l1,1l1,1l1,1l1,1l1,1l1,1l1,1l1,1l1,1l1,1l1,1l1,1l1,1l1,1l1,1l1,1l1,1l1,1l1,1l1,1l1,1l1,1l1,1l1,1l1,1l1,1l1,1l1,1l1,1l1,1l1,1l1,1l1,1l1,1l1,1l1,1l1,1l1,1l1,1l1,1l1,1l1,1l1,1l1,1l1,1l1,1l1,1l1,1l1,1l1,1l1,1l1,1l1,1l1,1l1,1l1,1l1,1l1,1l1,1l1,1l1,1l1,1l1,1l1,1l1,1l1,1l1,1l1,1l1,1l1,1l1,1l1,1l1,1l1,1l1,1l1,1l1,1l1,1l1,1l1,1l1,1l1,1l1,1l1,1l1,1l1,1l1,1l1,1l1,1l1,1l1,1l1,1l1,1l1,1l1,1l1,1l1,1l1,1l1,1l1,1l1,1l1,1l1,1l1,1l1,1l1,1l1,1l1,1l1,1l1,1l1,1l1,1l1,1l1,1l1,1l1,1l1,1l1,1l1,1l1,1l1,1l1,1l1,1l1,1l1,1l1,1l1,1l1,1l1,1l1,1l1,1l1,1l1,1l1,1l1,1l1,1l1,1l1,1l1,1l1,1l1,1l1,1l1,1l1,1l1,1l1,1l1,1l1,1l1,1l1,1l1,1l1,1l1,1l1,1l1,1l1,1l1,1l1,1l1,1l1,1l1,1l1,1l1,1l1,1l1,1l1,1l1,1l1,1l1,1l1,1l1,1l1,1l1,1l1,1l1,1l1,1l1,1l1,1l1,1l1,1l1,1l1,1l1,1l1,1l1,1l1,1l1,1l1,1l1,1l1,1l1,1l1,1l1,1l1,1l1,1l1,1l1,1l1,1l1,1l1,1l1,1l1,1l1,1l1,1l1,1l1,1l1,1l1,1l1,1l1,1l1,1l1,1l1,1l1,1l1,1l1,1l1,1l1,1l1,1l1,1l1,1l1,1l1,1l1,1l1,1l1,1l1,1l1,1l1,1l1,1l1,1l1,1l1,1l1,1l1,1l1,1l1,1l1,1l1,1l1,1l1,1l1,1l1,1l1,1l1,1l1,1l1,1l1,1l1,1l1,1l1,1l1,1l1,1l1,1l1,1l1,1l1,1l1,1l1,1l1,1l1,1l1,1l1,1l1,1l1,1l1,1l1,1l1,1l1,1l1,1l1,1l1,1l1,1l1,1l1,1l1,1l1,1l1,1l1,1l1,1l1,1l1,1l1,1l1,1l1,1l1,1l1,1l1,1l1,1l1,1l1,1l1,1l1,1l1,1l1,1l1,1l1,1l1,1l1,1l1,1l1,1l1,1l1,1l1,1l1,1l1,1l1,1l1,1l1,1l1,1l1,1l1,1l1,1l1,1l1,1l1,1l1,1l1,1l1,1l1,1l1,1l1,1l1,1l1,1l1,1l1,1l1,1l1,1l1,1l1,1l1,1l1,1l1,1l1,1l1,1l1,1l1,1l1,1l1,1l1,1l1,1l1,1l1,1l1,1l1,1l1,1l1,1l1,1l1,1l1,1l1,1l1,1l1,1l1,1l1,1l1,1l1,1l1,1l1,1l1,1l1,1l1,1l1,1l1,1l1,1l1,1l1,1l1,1l1,1l1,1l1,1l1,1l1,1l1,1l1,1l1,1l1,1l1,1l1,1l1,1l1,1l1,1l1,1l1,1l1,1l1,1l1,1l1,1l1,1l1,1l1,1l1,1l1,1l1,1l1,1"/>
   <path id="svg_27" fill="none" stroke="#000000" d="m276.12,0l0.01,0l0.5,1l0.5,1l0.5,1l0.5,1l0.5,1l0.5,1l0.5,1l0.5,1l0.5,1l0.5,1l0.5,1l0.5,1l0.5,1l0.5,1l0.5,1l0.5,1l0.5,1l0.5,1l0.5,1l0.5,1l0.5,1l0.5,1l0.5,1l0.5,1l0.5,1l0.5,1l0.5,1l0.5,1l0.5,1l0.5,1l0.5,1l0.5,1l0.5,1l0.5,1l0.5,1l0.5,1l0.5,1l0.5,1l0.5,1l0.5,1l0.5,1l0.5,1l0.5,1l0.5,1l0.5,1l0.5,1l0.5,1l0.5,1l0.5,1l0.5,1l0.5,1l0.5,1l0.5,1l0.5,1l0.5,1l0.5,1l0.5,1l0.5,1l0.5,1l0.5,1l0.5,1l0.5,1l0.5,1l0.5,1l0.5,1l0.5,1l0.5,1l0.5,1l0.5,1l0.5,1l0.5,1l0.5,1l0.5,1l0.5,1l0.5,1l0.5,1l0.5,1l0.5,1l0.5,1l0.5,1l0.5,1l0.5,1l0.5,1l0.5,1l0.5,1l0.5,1l0.5,1l0.5,1l0.5,1l0.5,1l0.5,1l0.5,1l0.5,1l0.5,1l0.5,1l0.5,1l0.5,1l0.5,1l0.5,1l0.5,1l0.5,1l0.5,1l0.5,1l0.5,1l0.5,1l0.5,1l0.5,1l0.5,1l0.5,1l0.5,1l0.5,1l0.5,1l0.5,1l0.5,1l0.5,1l0.5,1l0.5,1l0.5,1l0.5,1l0.5,1l0.5,1l0.5,1l0.5,1l0.5,1l0.5,1l0.5,1l0.5,1l0.5,1l0.5,1l0.5,1l0.5,1l0.5,1l0.5,1l0.5,1l0.5,1l0.5,1l0.5,1l0.5,1l0.5,1l0.5,1l0.5,1l0.5,1l0.5,1l0.5,1l0.5,1l0.5,1l0.5,1l0.5,1l0.5,1l0.5,1l0.5,1l0.5,1l0.5,1l0.5,1l0.5,1l0.5,1l0.5,1l0.5,1l0.5,1l0.5,1l0.5,1l0.5,1l0.5,1l0.5,1l0.5,1l0.5,1l0.5,1l0.5,1l0.5,1l0.5,1l0.5,1l0.5,1l0.5,1l0.5,1l0.5,1l0.5,1l0.5,1l0.5,1l0.5,1l0.5,1l0.5,1l0.5,1l0.5,1l0.5,1l0.5,1l0.5,1l0.5,1l0.5,1l0.5,1l0.5,1l0.5,1l0.5,1l0.5,1l0.5,1l0.5,1l0.5,1l0.5,1l0.5,1l0.5,1l0.5,1l0.5,1l0.5,1l0.5,1l0.5,1l0.5,1l0.5,1l0.5,1l0.5,1l0.5,1l0.5,1l0.5,1l0.5,1l0.5,1l0.5,1l0.5,1l0.5,1l0.5,1l0.5,1l0.5,1l0.5,1l0.5,1l0.5,1l0.5,1l0.5,1l0.5,1l0.5,1l0.5,1l0.5,1l0.5,1l0.5,1l0.5,1l0.5,1l0.5,1l0.5,1l0.5,1l0.5,1l0.5,1l0.5,1l0.5,1l0.5,1l0.5,1l0.5,1l0.5,1l0.5,1l0.5,1l0.5,1l0.5,1l0.5,1l0.5,1l0.5,1l0.5,1l0.5,1l0.5,1l0.5,1l0.5,1l0.5,1l0.5,1l0.5,1l0.5,1l0.5,1l0.5,1l0.5,1l0.5,1l0.5,1l0.5,1l0.5,1l0.5,1l0.5,1l0.5,1l0.5,1l0.5,1l0.5,1l0.5,1l0.5,1l0.5,1l0.5,1l0.5,1l0.5,1l0.5,1l0.5,1l0.5,1l0.5,1l0.5,1l0.5,1l0.5,1l0.5,1l0.5,1l0.5,1l0.5,1l0.5,1l0.5,1l0.5,1l0.5,1l0.5,1l0.5,1l0.5,1l0.5,1l0.5,1l0.5,1l0.5,1l0.5,1l0.5,1l0.5,1l0.5,1l0.5,1l0.5,1l0.5,1l0.5,1l0.5,1l0.5,1l0.5,1l0.5,1l0.5,1l0.5,1l0.5,1l0.5,1l0.5,1l0.5,1l0.5,1l0.5,1l0.5,1l0.5,1l0.5,1l0.5,1l0.5,1l0.5,1l0.5,1l0.5,1l0.5,1l0.5,1l0.5,1l0.5,1l0.5,1l0.5,1l0.5,1l0.5,1l0.5,1l0.5,1l0.5,1l0.5,1l0.5,1l0.5,1l0.5,1l0.5,1l0.5,1l0.5,1l0.5,1l0.5,1l0.5,1l0.5,1l0.5,1l0.5,1l0.5,1l0.5,1l0.5,1l0.5,1l0.5,1l0.5,1l0.5,1l0.5,1l0.5,1l0.5,1l0.5,1l0.5,1l0.5,1l0.5,1l0.5,1l0.5,1l0.5,1l0.5,1l0.5,1l0.5,1l0.5,1l0.5,1l0.5,1l0.5,1l0.5,1l0.5,1l0.5,1l0.5,1l0.5,1l0.5,1l0.5,1l0.5,1l0.5,1l0.5,1l0.5,1l0.5,1l0.5,1l0.5,1l0.5,1l0.5,1l0.5,1l0.5,1l0.5,1l0.5,1l0.5,1l0.5,1l0.5,1l0.5,1"/>
  </g>
  <path d="m371.5,109.515625c-3,-3 -5.558197,-6.519287 -9,-9c-1.813995,-1.307449 -4.693451,-3.458801 -6,-4c-0.923889,-0.382683 -4,-1 -5,-2c-2,-2 -3.934143,-3.144295 -6,-4c-2.92157,-1.210152 -4,-2 -5,-2c-1,0 -4.026764,-0.770248 -5,-1c-2.176239,-0.513741 -6.085815,-2.420433 -8,-3c-3.450836,-1.04483 -4,-2 -5,-2c-1,0 -2,0 -4,0c-2,0 -4.042908,-0.289787 -5,0c-3.450836,1.04483 -6.865479,4.263649 -11,10c-3.922363,5.441978 -6.130829,11.95797 -8,18c-2.151581,6.954903 -3.918701,14.0121 -5,21c-0.930176,6.011215 -1.499023,12.953323 -2,21c-0.372833,5.988403 0.360779,15.215118 3,22c2.431885,6.251877 6.463806,11.689102 14,17c6.59021,4.644257 15.168243,7.584808 23,11c8.198669,3.57518 14.044678,4.761368 20,6c4.036713,0.839584 10,1 13,1c2,0 5,0 7,0c2,0 6.805664,-1.44841 11,-3c3.867004,-1.430496 9.541229,-4.518707 14,-8c4.595978,-3.58844 12.112152,-7.918304 15,-12c2.082458,-2.943359 2.34314,-4.876053 4,-10c1.268555,-3.923111 1,-8 1,-14c0,-6 0.081299,-12.0121 -1,-19c-0.930176,-6.011215 -5,-15 -8,-21c-3,-6 -5.723999,-10.222733 -9,-14c-2.779785,-3.205116 -6,-6 -8,-8c-2,-2 -3.186005,-1.692551 -5,-3c-1.147278,-0.826904 -2.053497,-1.540497 -4,-2c-2.176239,-0.513741 -3,-3 -7,-5c-2,-1 -3,-1 -4,-1c-1,0 -2,0 -3,0c0,0 -0.549164,-0.95517 -4,-2c-0.957092,-0.289787 -3,0 -5,0c-4,0 -8,0 -12,0l-2,0" id="svg_29" stroke-width="1.5" stroke="#000" fill="none"/>
 </g>
</svg>