<?xml version="1.0" standalone="no"?><!DOCTYPE svg PUBLIC "-//W3C//DTD SVG 1.1//EN" "http://www.w3.org/Graphics/SVG/1.1/DTD/svg11.dtd"><svg xmlns="http://www.w3.org/2000/svg" viewBox="0 0 650 400" version="1.1"><clipPath id="box"><rect x="0" y="0" width="650" height="400" style="fill:none;stroke:none;" /></clipPath><g clip-path="url(#box)"><rect x="0.00" y="0.00" width="650.00" height="400.00" style="fill:#FFFFFF;stroke:none;" /><path d="M0.00 393.00 L650.00 393.00 M0.00 343.00 L650.00 343.00 M0.00 293.00 L650.00 293.00 M0.00 243.00 L650.00 243.00 M0.00 193.00 L650.00 193.00 M0.00 143.00 L650.00 143.00 M0.00 93.00 L650.00 93.00 M0.00 43.00 L650.00 43.00 M35.00 0.00 L35.00 400.00 M85.00 0.00 L85.00 400.00 M135.00 0.00 L135.00 400.00 M185.00 0.00 L185.00 400.00 M235.00 0.00 L235.00 400.00 M285.00 0.00 L285.00 400.00 M335.00 0.00 L335.00 400.00 M385.00 0.00 L385.00 400.00 M434.00 0.00 L434.00 400.00 M484.00 0.00 L484.00 400.00 M535.00 0.00 L535.00 400.00 M584.00 0.00 L584.00 400.00 M635.00 0.00 L635.00 400.00 " style="fill:none;stroke:#D0D0D0;stroke-width:1;" /><path d="M285.00 0.00 L285.00 400.00 " style="fill:none;stroke:#000000;stroke-width:1;" /><path d="M278.50 443.00 L291.50 443.00 M278.50 393.00 L291.50 393.00 M278.50 343.00 L291.50 343.00 M278.50 293.00 L291.50 293.00 M278.50 243.00 L291.50 243.00 M278.50 193.00 L291.50 193.00 M278.50 143.00 L291.50 143.00 M278.50 93.00 L291.50 93.00 M278.50 43.00 L291.50 43.00 " style="fill:none;stroke:#000000;stroke-width:1;" /><path d="M0.00 343.00 L650.00 343.00 " style="fill:none;stroke:#000000;stroke-width:1;" /><path d="M-15.00 336.50 L-15.00 349.50 M35.00 336.50 L35.00 349.50 M85.00 336.50 L85.00 349.50 M135.00 336.50 L135.00 349.50 M185.00 336.50 L185.00 349.50 M235.00 336.50 L235.00 349.50 M285.00 336.50 L285.00 349.50 M335.00 336.50 L335.00 349.50 M385.00 336.50 L385.00 349.50 M435.00 336.50 L435.00 349.50 M485.00 336.50 L485.00 349.50 M535.00 336.50 L535.00 349.50 M585.00 336.50 L585.00 349.50 M635.00 336.50 L635.00 349.50 " style="fill:none;stroke:#000000;stroke-width:1;" /><text x="293.125" y="345.5" text-anchor="start" style="font:10px Droid Sans,Trebuchet MS,Arial,Helvetica,sans-serif;stroke:none;fill:#000000">0</text><text x="293.125" y="295.5" text-anchor="start" style="font:10px Droid Sans,Trebuchet MS,Arial,Helvetica,sans-serif;stroke:none;fill:#000000">1</text><text x="293.125" y="245.50000000000003" text-anchor="start" style="font:10px Droid Sans,Trebuchet MS,Arial,Helvetica,sans-serif;stroke:none;fill:#000000">2</text><text x="293.125" y="195.50000000000003" text-anchor="start" style="font:10px Droid Sans,Trebuchet MS,Arial,Helvetica,sans-serif;stroke:none;fill:#000000">3</text><text x="293.125" y="145.50000000000003" text-anchor="start" style="font:10px Droid Sans,Trebuchet MS,Arial,Helvetica,sans-serif;stroke:none;fill:#000000">4</text><text x="293.125" y="95.50000000000001" text-anchor="start" style="font:10px Droid Sans,Trebuchet MS,Arial,Helvetica,sans-serif;stroke:none;fill:#000000">5</text><text x="293.125" y="45.500000000000014" text-anchor="start" style="font:10px Droid Sans,Trebuchet MS,Arial,Helvetica,sans-serif;stroke:none;fill:#000000">6</text><text x="35.000000000000014" y="359.125" text-anchor="middle" style="font:10px Droid Sans,Trebuchet MS,Arial,Helvetica,sans-serif;stroke:none;fill:#000000">-5</text><text x="85" y="359.125" text-anchor="middle" style="font:10px Droid Sans,Trebuchet MS,Arial,Helvetica,sans-serif;stroke:none;fill:#000000">-4</text><text x="135" y="359.125" text-anchor="middle" style="font:10px Droid Sans,Trebuchet MS,Arial,Helvetica,sans-serif;stroke:none;fill:#000000">-3</text><text x="185" y="359.125" text-anchor="middle" style="font:10px Droid Sans,Trebuchet MS,Arial,Helvetica,sans-serif;stroke:none;fill:#000000">-2</text><text x="235" y="359.125" text-anchor="middle" style="font:10px Droid Sans,Trebuchet MS,Arial,Helvetica,sans-serif;stroke:none;fill:#000000">-1</text><text x="285" y="359.125" text-anchor="middle" style="font:10px Droid Sans,Trebuchet MS,Arial,Helvetica,sans-serif;stroke:none;fill:#000000">0</text><text x="335.00000000000006" y="359.125" text-anchor="middle" style="font:10px Droid Sans,Trebuchet MS,Arial,Helvetica,sans-serif;stroke:none;fill:#000000">1</text><text x="385" y="359.125" text-anchor="middle" style="font:10px Droid Sans,Trebuchet MS,Arial,Helvetica,sans-serif;stroke:none;fill:#000000">2</text><text x="434.99999999999994" y="359.125" text-anchor="middle" style="font:10px Droid Sans,Trebuchet MS,Arial,Helvetica,sans-serif;stroke:none;fill:#000000">3</text><text x="484.99999999999994" y="359.125" text-anchor="middle" style="font:10px Droid Sans,Trebuchet MS,Arial,Helvetica,sans-serif;stroke:none;fill:#000000">4</text><text x="535" y="359.125" text-anchor="middle" style="font:10px Droid Sans,Trebuchet MS,Arial,Helvetica,sans-serif;stroke:none;fill:#000000">5</text><text x="584.9999999999999" y="359.125" text-anchor="middle" style="font:10px Droid Sans,Trebuchet MS,Arial,Helvetica,sans-serif;stroke:none;fill:#000000">6</text><text x="635" y="359.125" text-anchor="middle" style="font:10px Droid Sans,Trebuchet MS,Arial,Helvetica,sans-serif;stroke:none;fill:#000000">7</text><path d="M281.50 400.00 L281.50 400.00 L282.00 399.00 L282.50 398.00 L283.00 397.00 L283.50 396.00 L284.00 395.00 L284.50 394.00 L285.00 393.00 L285.50 392.00 L286.00 391.00 L286.50 390.00 L287.00 389.00 L287.50 388.00 L288.00 387.00 L288.50 386.00 L289.00 385.00 L289.50 384.00 L290.00 383.00 L290.50 382.00 L291.00 381.00 L291.50 380.00 L292.00 379.00 L292.50 378.00 L293.00 377.00 L293.50 376.00 L294.00 375.00 L294.50 374.00 L295.00 373.00 L295.50 372.00 L296.00 371.00 L296.50 370.00 L297.00 369.00 L297.50 368.00 L298.00 367.00 L298.50 366.00 L299.00 365.00 L299.50 364.00 L300.00 363.00 L300.50 362.00 L301.00 361.00 L301.50 360.00 L302.00 359.00 L302.50 358.00 L303.00 357.00 L303.50 356.00 L304.00 355.00 L304.50 354.00 L305.00 353.00 L305.50 352.00 L306.00 351.00 L306.50 350.00 L307.00 349.00 L307.50 348.00 L308.00 347.00 L308.50 346.00 L309.00 345.00 L309.50 344.00 L310.00 343.00 L310.50 342.00 L311.00 341.00 L311.50 340.00 L312.00 339.00 L312.50 338.00 L313.00 337.00 L313.50 336.00 L314.00 335.00 L314.50 334.00 L315.00 333.00 L315.50 332.00 L316.00 331.00 L316.50 330.00 L317.00 329.00 L317.50 328.00 L318.00 327.00 L318.50 326.00 L319.00 325.00 L319.50 324.00 L320.00 323.00 L320.50 322.00 L321.00 321.00 L321.50 320.00 L322.00 319.00 L322.50 318.00 L323.00 317.00 L323.50 316.00 L324.00 315.00 L324.50 314.00 L325.00 313.00 L325.50 312.00 L326.00 311.00 L326.50 310.00 L327.00 309.00 L327.50 308.00 L328.00 307.00 L328.50 306.00 L329.00 305.00 L329.50 304.00 L330.00 303.00 L330.50 302.00 L331.00 301.00 L331.50 300.00 L332.00 299.00 L332.50 298.00 L333.00 297.00 L333.50 296.00 L334.00 295.00 L334.50 294.00 L335.00 293.00 L335.50 292.00 L336.00 291.00 L336.50 290.00 L337.00 289.00 L337.50 288.00 L338.00 287.00 L338.50 286.00 L339.00 285.00 L339.50 284.00 L340.00 283.00 L340.50 282.00 L341.00 281.00 L341.50 280.00 L342.00 279.00 L342.50 278.00 L343.00 277.00 L343.50 276.00 L344.00 275.00 L344.50 274.00 L345.00 273.00 L345.50 272.00 L346.00 271.00 L346.50 270.00 L347.00 269.00 L347.50 268.00 L348.00 267.00 L348.50 266.00 L349.00 265.00 L349.50 264.00 L350.00 263.00 L350.50 262.00 L351.00 261.00 L351.50 260.00 L352.00 259.00 L352.50 258.00 L353.00 257.00 L353.50 256.00 L354.00 255.00 L354.50 254.00 L355.00 253.00 L355.50 252.00 L356.00 251.00 L356.50 250.00 L357.00 249.00 L357.50 248.00 L358.00 247.00 L358.50 246.00 L359.00 245.00 L359.50 244.00 L360.00 243.00 L360.50 242.00 L361.00 241.00 L361.50 240.00 L362.00 239.00 L362.50 238.00 L363.00 237.00 L363.50 236.00 L364.00 235.00 L364.50 234.00 L365.00 233.00 L365.50 232.00 L366.00 231.00 L366.50 230.00 L367.00 229.00 L367.50 228.00 L368.00 227.00 L368.50 226.00 L369.00 225.00 L369.50 224.00 L370.00 223.00 L370.50 222.00 L371.00 221.00 L371.50 220.00 L372.00 219.00 L372.50 218.00 L373.00 217.00 L373.50 216.00 L374.00 215.00 L374.50 214.00 L375.00 213.00 L375.50 212.00 L376.00 211.00 L376.50 210.00 L377.00 209.00 L377.50 208.00 L378.00 207.00 L378.50 206.00 L379.00 205.00 L379.50 204.00 L380.00 203.00 L380.50 202.00 L381.00 201.00 L381.50 200.00 L382.00 199.00 L382.50 198.00 L383.00 197.00 L383.50 196.00 L384.00 195.00 L384.50 194.00 L385.00 193.00 L385.50 192.00 L386.00 191.00 L386.50 190.00 L387.00 189.00 L387.50 188.00 L388.00 187.00 L388.50 186.00 L389.00 185.00 L389.50 184.00 L390.00 183.00 L390.50 182.00 L391.00 181.00 L391.50 180.00 L392.00 179.00 L392.50 178.00 L393.00 177.00 L393.50 176.00 L394.00 175.00 L394.50 174.00 L395.00 173.00 L395.50 172.00 L396.00 171.00 L396.50 170.00 L397.00 169.00 L397.50 168.00 L398.00 167.00 L398.50 166.00 L399.00 165.00 L399.50 164.00 L400.00 163.00 L400.50 162.00 L401.00 161.00 L401.50 160.00 L402.00 159.00 L402.50 158.00 L403.00 157.00 L403.50 156.00 L404.00 155.00 L404.50 154.00 L405.00 153.00 L405.50 152.00 L406.00 151.00 L406.50 150.00 L407.00 149.00 L407.50 148.00 L408.00 147.00 L408.50 146.00 L409.00 145.00 L409.50 144.00 L410.00 143.00 L410.50 142.00 L411.00 141.00 L411.50 140.00 L412.00 139.00 L412.50 138.00 L413.00 137.00 L413.50 136.00 L414.00 135.00 L414.50 134.00 L415.00 133.00 L415.50 132.00 L416.00 131.00 L416.50 130.00 L417.00 129.00 L417.50 128.00 L418.00 127.00 L418.50 126.00 L419.00 125.00 L419.50 124.00 L420.00 123.00 L420.50 122.00 L421.00 121.00 L421.50 120.00 L422.00 119.00 L422.50 118.00 L423.00 117.00 L423.50 116.00 L424.00 115.00 L424.50 114.00 L425.00 113.00 L425.50 112.00 L426.00 111.00 L426.50 110.00 L427.00 109.00 L427.50 108.00 L428.00 107.00 L428.50 106.00 L429.00 105.00 L429.50 104.00 L430.00 103.00 L430.50 102.00 L431.00 101.00 L431.50 100.00 L432.00 99.00 L432.50 98.00 L433.00 97.00 L433.50 96.00 L434.00 95.00 L434.50 94.00 L435.00 93.00 L435.50 92.00 L436.00 91.00 L436.50 90.00 L437.00 89.00 L437.50 88.00 L438.00 87.00 L438.50 86.00 L439.00 85.00 L439.50 84.00 L440.00 83.00 L440.50 82.00 L441.00 81.00 L441.50 80.00 L442.00 79.00 L442.50 78.00 L443.00 77.00 L443.50 76.00 L444.00 75.00 L444.50 74.00 L445.00 73.00 L445.50 72.00 L446.00 71.00 L446.50 70.00 L447.00 69.00 L447.50 68.00 L448.00 67.00 L448.50 66.00 L449.00 65.00 L449.50 64.00 L450.00 63.00 L450.50 62.00 L451.00 61.00 L451.50 60.00 L452.00 59.00 L452.50 58.00 L453.00 57.00 L453.50 56.00 L454.00 55.00 L454.50 54.00 L455.00 53.00 L455.50 52.00 L456.00 51.00 L456.50 50.00 L457.00 49.00 L457.50 48.00 L458.00 47.00 L458.50 46.00 L459.00 45.00 L459.50 44.00 L460.00 43.00 L460.50 42.00 L461.00 41.00 L461.50 40.00 L462.00 39.00 L462.50 38.00 L463.00 37.00 L463.50 36.00 L464.00 35.00 L464.50 34.00 L465.00 33.00 L465.50 32.00 L466.00 31.00 L466.50 30.00 L467.00 29.00 L467.50 28.00 L468.00 27.00 L468.50 26.00 L469.00 25.00 L469.50 24.00 L470.00 23.00 L470.50 22.00 L471.00 21.00 L471.50 20.00 L472.00 19.00 L472.50 18.00 L473.00 17.00 L473.50 16.00 L474.00 15.00 L474.50 14.00 L475.00 13.00 L475.50 12.00 L476.00 11.00 L476.50 10.00 L477.00 9.00 L477.50 8.00 L478.00 7.00 L478.50 6.00 L479.00 5.00 L479.50 4.00 L480.00 3.00 L480.50 2.00 L481.00 1.00 L481.50 -0.00 " style="fill:none;stroke:#000000;stroke-width:1;" /><path d="M316.00 400.00 L316.00 400.00 L316.33 399.00 L316.67 398.00 L317.00 397.00 L317.33 396.00 L317.67 395.00 L318.00 394.00 L318.33 393.00 L318.67 392.00 L319.00 391.00 L319.33 390.00 L319.67 389.00 L320.00 388.00 L320.33 387.00 L320.67 386.00 L321.00 385.00 L321.33 384.00 L321.67 383.00 L322.00 382.00 L322.33 381.00 L322.67 380.00 L323.00 379.00 L323.33 378.00 L323.67 377.00 L324.00 376.00 L324.33 375.00 L324.67 374.00 L325.00 373.00 L325.33 372.00 L325.67 371.00 L326.00 370.00 L326.33 369.00 L326.67 368.00 L327.00 367.00 L327.33 366.00 L327.67 365.00 L328.00 364.00 L328.33 363.00 L328.67 362.00 L329.00 361.00 L329.33 360.00 L329.67 359.00 L330.00 358.00 L330.33 357.00 L330.67 356.00 L331.00 355.00 L331.33 354.00 L331.67 353.00 L332.00 352.00 L332.33 351.00 L332.67 350.00 L333.00 349.00 L333.33 348.00 L333.67 347.00 L334.00 346.00 L334.33 345.00 L334.67 344.00 L335.00 343.00 L335.33 342.00 L335.67 341.00 L336.00 340.00 L336.33 339.00 L336.67 338.00 L337.00 337.00 L337.33 336.00 L337.67 335.00 L338.00 334.00 L338.33 333.00 L338.67 332.00 L339.00 331.00 L339.33 330.00 L339.67 329.00 L340.00 328.00 L340.33 327.00 L340.67 326.00 L341.00 325.00 L341.33 324.00 L341.67 323.00 L342.00 322.00 L342.33 321.00 L342.67 320.00 L343.00 319.00 L343.33 318.00 L343.67 317.00 L344.00 316.00 L344.33 315.00 L344.67 314.00 L345.00 313.00 L345.33 312.00 L345.67 311.00 L346.00 310.00 L346.33 309.00 L346.67 308.00 L347.00 307.00 L347.33 306.00 L347.67 305.00 L348.00 304.00 L348.33 303.00 L348.67 302.00 L349.00 301.00 L349.33 300.00 L349.67 299.00 L350.00 298.00 L350.33 297.00 L350.67 296.00 L351.00 295.00 L351.33 294.00 L351.67 293.00 L352.00 292.00 L352.33 291.00 L352.67 290.00 L353.00 289.00 L353.33 288.00 L353.67 287.00 L354.00 286.00 L354.33 285.00 L354.67 284.00 L355.00 283.00 L355.33 282.00 L355.67 281.00 L356.00 280.00 L356.33 279.00 L356.67 278.00 L357.00 277.00 L357.33 276.00 L357.67 275.00 L358.00 274.00 L358.33 273.00 L358.67 272.00 L359.00 271.00 L359.33 270.00 L359.67 269.00 L360.00 268.00 L360.33 267.00 L360.67 266.00 L361.00 265.00 L361.33 264.00 L361.67 263.00 L362.00 262.00 L362.33 261.00 L362.67 260.00 L363.00 259.00 L363.33 258.00 L363.67 257.00 L364.00 256.00 L364.33 255.00 L364.67 254.00 L365.00 253.00 L365.33 252.00 L365.67 251.00 L366.00 250.00 L366.33 249.00 L366.67 248.00 L367.00 247.00 L367.33 246.00 L367.67 245.00 L368.00 244.00 L368.33 243.00 L368.67 242.00 L369.00 241.00 L369.33 240.00 L369.67 239.00 L370.00 238.00 L370.33 237.00 L370.67 236.00 L371.00 235.00 L371.33 234.00 L371.67 233.00 L372.00 232.00 L372.33 231.00 L372.67 230.00 L373.00 229.00 L373.33 228.00 L373.67 227.00 L374.00 226.00 L374.33 225.00 L374.67 224.00 L375.00 223.00 L375.33 222.00 L375.67 221.00 L376.00 220.00 L376.33 219.00 L376.67 218.00 L377.00 217.00 L377.33 216.00 L377.67 215.00 L378.00 214.00 L378.33 213.00 L378.67 212.00 L379.00 211.00 L379.33 210.00 L379.67 209.00 L380.00 208.00 L380.33 207.00 L380.67 206.00 L381.00 205.00 L381.33 204.00 L381.67 203.00 L382.00 202.00 L382.33 201.00 L382.67 200.00 L383.00 199.00 L383.33 198.00 L383.67 197.00 L384.00 196.00 L384.33 195.00 L384.67 194.00 L385.00 193.00 L385.33 192.00 L385.67 191.00 L386.00 190.00 L386.33 189.00 L386.67 188.00 L387.00 187.00 L387.33 186.00 L387.67 185.00 L388.00 184.00 L388.33 183.00 L388.67 182.00 L389.00 181.00 L389.33 180.00 L389.67 179.00 L390.00 178.00 L390.33 177.00 L390.67 176.00 L391.00 175.00 L391.33 174.00 L391.67 173.00 L392.00 172.00 L392.33 171.00 L392.67 170.00 L393.00 169.00 L393.33 168.00 L393.67 167.00 L394.00 166.00 L394.33 165.00 L394.67 164.00 L395.00 163.00 L395.33 162.00 L395.67 161.00 L396.00 160.00 L396.33 159.00 L396.67 158.00 L397.00 157.00 L397.33 156.00 L397.67 155.00 L398.00 154.00 L398.33 153.00 L398.67 152.00 L399.00 151.00 L399.33 150.00 L399.67 149.00 L400.00 148.00 L400.33 147.00 L400.67 146.00 L401.00 145.00 L401.33 144.00 L401.67 143.00 L402.00 142.00 L402.33 141.00 L402.67 140.00 L403.00 139.00 L403.33 138.00 L403.67 137.00 L404.00 136.00 L404.33 135.00 L404.67 134.00 L405.00 133.00 L405.33 132.00 L405.67 131.00 L406.00 130.00 L406.33 129.00 L406.67 128.00 L407.00 127.00 L407.33 126.00 L407.67 125.00 L408.00 124.00 L408.33 123.00 L408.67 122.00 L409.00 121.00 L409.33 120.00 L409.67 119.00 L410.00 118.00 L410.33 117.00 L410.67 116.00 L411.00 115.00 L411.33 114.00 L411.67 113.00 L412.00 112.00 L412.33 111.00 L412.67 110.00 L413.00 109.00 L413.33 108.00 L413.67 107.00 L414.00 106.00 L414.33 105.00 L414.67 104.00 L415.00 103.00 L415.33 102.00 L415.67 101.00 L416.00 100.00 L416.33 99.00 L416.67 98.00 L417.00 97.00 L417.33 96.00 L417.67 95.00 L418.00 94.00 L418.33 93.00 L418.67 92.00 L419.00 91.00 L419.33 90.00 L419.67 89.00 L420.00 88.00 L420.33 87.00 L420.67 86.00 L421.00 85.00 L421.33 84.00 L421.67 83.00 L422.00 82.00 L422.33 81.00 L422.67 80.00 L423.00 79.00 L423.33 78.00 L423.67 77.00 L424.00 76.00 L424.33 75.00 L424.67 74.00 L425.00 73.00 L425.33 72.00 L425.67 71.00 L426.00 70.00 L426.33 69.00 L426.67 68.00 L427.00 67.00 L427.33 66.00 L427.67 65.00 L428.00 64.00 L428.33 63.00 L428.67 62.00 L429.00 61.00 L429.33 60.00 L429.67 59.00 L430.00 58.00 L430.33 57.00 L430.67 56.00 L431.00 55.00 L431.33 54.00 L431.67 53.00 L432.00 52.00 L432.33 51.00 L432.67 50.00 L433.00 49.00 L433.33 48.00 L433.67 47.00 L434.00 46.00 L434.33 45.00 L434.67 44.00 L435.00 43.00 L435.33 42.00 L435.67 41.00 L436.00 40.00 L436.33 39.00 L436.67 38.00 L437.00 37.00 L437.33 36.00 L437.67 35.00 L438.00 34.00 L438.33 33.00 L438.67 32.00 L439.00 31.00 L439.33 30.00 L439.67 29.00 L440.00 28.00 L440.33 27.00 L440.67 26.00 L441.00 25.00 L441.33 24.00 L441.67 23.00 L442.00 22.00 L442.33 21.00 L442.67 20.00 L443.00 19.00 L443.33 18.00 L443.67 17.00 L444.00 16.00 L444.33 15.00 L444.67 14.00 L445.00 13.00 L445.33 12.00 L445.67 11.00 L446.00 10.00 L446.33 9.00 L446.67 8.00 L447.00 7.00 L447.33 6.00 L447.67 5.00 L448.00 4.00 L448.33 3.00 L448.67 2.00 L449.00 1.00 L449.33 -0.00 " style="fill:none;stroke:#000000;stroke-width:1;" /></g></svg>