<?xml version="1.0" standalone="no"?><!DOCTYPE svg PUBLIC "-//W3C//DTD SVG 1.1//EN" "http://www.w3.org/Graphics/SVG/1.1/DTD/svg11.dtd"><svg xmlns="http://www.w3.org/2000/svg" viewBox="0 0 650 400" version="1.1"><clipPath id="box"><rect x="0" y="0" width="650" height="400" style="fill:none;stroke:none;" /></clipPath><g clip-path="url(#box)"><rect x="0.00" y="0.00" width="650.00" height="400.00" style="fill:#FFFFFF;stroke:none;" /><path d="M0.00 350.00 L650.00 350.00 M0.00 300.00 L650.00 300.00 M0.00 250.00 L650.00 250.00 M0.00 200.00 L650.00 200.00 M0.00 149.00 L650.00 149.00 M0.00 99.00 L650.00 99.00 M0.00 49.00 L650.00 49.00 M24.00 0.00 L24.00 400.00 M74.00 0.00 L74.00 400.00 M124.00 0.00 L124.00 400.00 M174.00 0.00 L174.00 400.00 M224.00 0.00 L224.00 400.00 M274.00 0.00 L274.00 400.00 M325.00 0.00 L325.00 400.00 M375.00 0.00 L375.00 400.00 M425.00 0.00 L425.00 400.00 M475.00 0.00 L475.00 400.00 M525.00 0.00 L525.00 400.00 M575.00 0.00 L575.00 400.00 M625.00 0.00 L625.00 400.00 " style="fill:none;stroke:#D0D0D0;stroke-width:1;" /><path d="M325.00 0.00 L325.00 400.00 " style="fill:none;stroke:#000000;stroke-width:1;" /><path d="M318.50 400.00 L331.50 400.00 M318.50 350.00 L331.50 350.00 M318.50 300.00 L331.50 300.00 M318.50 250.00 L331.50 250.00 M318.50 200.00 L331.50 200.00 M318.50 150.00 L331.50 150.00 M318.50 100.00 L331.50 100.00 M318.50 50.00 L331.50 50.00 " style="fill:none;stroke:#000000;stroke-width:1;" /><path d="M0.00 200.00 L650.00 200.00 " style="fill:none;stroke:#000000;stroke-width:1;" /><path d="M-25.00 193.50 L-25.00 206.50 M25.00 193.50 L25.00 206.50 M75.00 193.50 L75.00 206.50 M125.00 193.50 L125.00 206.50 M175.00 193.50 L175.00 206.50 M225.00 193.50 L225.00 206.50 M275.00 193.50 L275.00 206.50 M325.00 193.50 L325.00 206.50 M375.00 193.50 L375.00 206.50 M425.00 193.50 L425.00 206.50 M475.00 193.50 L475.00 206.50 M525.00 193.50 L525.00 206.50 M575.00 193.50 L575.00 206.50 M625.00 193.50 L625.00 206.50 " style="fill:none;stroke:#000000;stroke-width:1;" /><text x="333.125" y="352.5000000000001" text-anchor="start" style="font:10px Droid Sans,Trebuchet MS,Arial,Helvetica,sans-serif;stroke:none;fill:#000000">-3</text><text x="333.125" y="302.5000000000001" text-anchor="start" style="font:10px Droid Sans,Trebuchet MS,Arial,Helvetica,sans-serif;stroke:none;fill:#000000">-2</text><text x="333.125" y="252.50000000000006" text-anchor="start" style="font:10px Droid Sans,Trebuchet MS,Arial,Helvetica,sans-serif;stroke:none;fill:#000000">-1</text><text x="333.125" y="202.5" text-anchor="start" style="font:10px Droid Sans,Trebuchet MS,Arial,Helvetica,sans-serif;stroke:none;fill:#000000">0</text><text x="333.125" y="152.49999999999994" text-anchor="start" style="font:10px Droid Sans,Trebuchet MS,Arial,Helvetica,sans-serif;stroke:none;fill:#000000">1</text><text x="333.125" y="102.49999999999993" text-anchor="start" style="font:10px Droid Sans,Trebuchet MS,Arial,Helvetica,sans-serif;stroke:none;fill:#000000">2</text><text x="333.125" y="52.4999999999999" text-anchor="start" style="font:10px Droid Sans,Trebuchet MS,Arial,Helvetica,sans-serif;stroke:none;fill:#000000">3</text><text x="24.999999999999833" y="216.125" text-anchor="middle" style="font:10px Droid Sans,Trebuchet MS,Arial,Helvetica,sans-serif;stroke:none;fill:#000000">-6</text><text x="74.99999999999986" y="216.125" text-anchor="middle" style="font:10px Droid Sans,Trebuchet MS,Arial,Helvetica,sans-serif;stroke:none;fill:#000000">-5</text><text x="124.9999999999999" y="216.125" text-anchor="middle" style="font:10px Droid Sans,Trebuchet MS,Arial,Helvetica,sans-serif;stroke:none;fill:#000000">-4</text><text x="174.99999999999991" y="216.125" text-anchor="middle" style="font:10px Droid Sans,Trebuchet MS,Arial,Helvetica,sans-serif;stroke:none;fill:#000000">-3</text><text x="224.99999999999997" y="216.125" text-anchor="middle" style="font:10px Droid Sans,Trebuchet MS,Arial,Helvetica,sans-serif;stroke:none;fill:#000000">-2</text><text x="274.99999999999994" y="216.125" text-anchor="middle" style="font:10px Droid Sans,Trebuchet MS,Arial,Helvetica,sans-serif;stroke:none;fill:#000000">-1</text><text x="325" y="216.125" text-anchor="middle" style="font:10px Droid Sans,Trebuchet MS,Arial,Helvetica,sans-serif;stroke:none;fill:#000000">0</text><text x="375.00000000000006" y="216.125" text-anchor="middle" style="font:10px Droid Sans,Trebuchet MS,Arial,Helvetica,sans-serif;stroke:none;fill:#000000">1</text><text x="425.00000000000006" y="216.125" text-anchor="middle" style="font:10px Droid Sans,Trebuchet MS,Arial,Helvetica,sans-serif;stroke:none;fill:#000000">2</text><text x="475.0000000000001" y="216.125" text-anchor="middle" style="font:10px Droid Sans,Trebuchet MS,Arial,Helvetica,sans-serif;stroke:none;fill:#000000">3</text><text x="525.0000000000001" y="216.125" text-anchor="middle" style="font:10px Droid Sans,Trebuchet MS,Arial,Helvetica,sans-serif;stroke:none;fill:#000000">4</text><text x="575.0000000000001" y="216.125" text-anchor="middle" style="font:10px Droid Sans,Trebuchet MS,Arial,Helvetica,sans-serif;stroke:none;fill:#000000">5</text><text x="625.0000000000001" y="216.125" text-anchor="middle" style="font:10px Droid Sans,Trebuchet MS,Arial,Helvetica,sans-serif;stroke:none;fill:#000000">6</text><path d="M75.00 400.00 L75.00 400.00 L76.00 399.00 L77.00 398.00 L78.00 397.00 L79.00 396.00 L80.00 395.00 L81.00 394.00 L82.00 393.00 L83.00 392.00 L84.00 391.00 L85.00 390.00 L86.00 389.00 L87.00 388.00 L88.00 387.00 L89.00 386.00 L90.00 385.00 L91.00 384.00 L92.00 383.00 L93.00 382.00 L94.00 381.00 L95.00 380.00 L96.00 379.00 L97.00 378.00 L98.00 377.00 L99.00 376.00 L100.00 375.00 L101.00 374.00 L102.00 373.00 L103.00 372.00 L104.00 371.00 L105.00 370.00 L106.00 369.00 L107.00 368.00 L108.00 367.00 L109.00 366.00 L110.00 365.00 L111.00 364.00 L112.00 363.00 L113.00 362.00 L114.00 361.00 L115.00 360.00 L116.00 359.00 L117.00 358.00 L118.00 357.00 L119.00 356.00 L120.00 355.00 L121.00 354.00 L122.00 353.00 L123.00 352.00 L124.00 351.00 L125.00 350.00 L126.00 349.00 L127.00 348.00 L128.00 347.00 L129.00 346.00 L130.00 345.00 L131.00 344.00 L132.00 343.00 L133.00 342.00 L134.00 341.00 L135.00 340.00 L136.00 339.00 L137.00 338.00 L138.00 337.00 L139.00 336.00 L140.00 335.00 L141.00 334.00 L142.00 333.00 L143.00 332.00 L144.00 331.00 L145.00 330.00 L146.00 329.00 L147.00 328.00 L148.00 327.00 L149.00 326.00 L150.00 325.00 L151.00 324.00 L152.00 323.00 L153.00 322.00 L154.00 321.00 L155.00 320.00 L156.00 319.00 L157.00 318.00 L158.00 317.00 L159.00 316.00 L160.00 315.00 L161.00 314.00 L162.00 313.00 L163.00 312.00 L164.00 311.00 L165.00 310.00 L166.00 309.00 L167.00 308.00 L168.00 307.00 L169.00 306.00 L170.00 305.00 L171.00 304.00 L172.00 303.00 L173.00 302.00 L174.00 301.00 L175.00 300.00 L176.00 299.00 L177.00 298.00 L178.00 297.00 L179.00 296.00 L180.00 295.00 L181.00 294.00 L182.00 293.00 L183.00 292.00 L184.00 291.00 L185.00 290.00 L186.00 289.00 L187.00 288.00 L188.00 287.00 L189.00 286.00 L190.00 285.00 L191.00 284.00 L192.00 283.00 L193.00 282.00 L194.00 281.00 L195.00 280.00 L196.00 279.00 L197.00 278.00 L198.00 277.00 L199.00 276.00 L200.00 275.00 L201.00 274.00 L202.00 273.00 L203.00 272.00 L204.00 271.00 L205.00 270.00 L206.00 269.00 L207.00 268.00 L208.00 267.00 L209.00 266.00 L210.00 265.00 L211.00 264.00 L212.00 263.00 L213.00 262.00 L214.00 261.00 L215.00 260.00 L216.00 259.00 L217.00 258.00 L218.00 257.00 L219.00 256.00 L220.00 255.00 L221.00 254.00 L222.00 253.00 L223.00 252.00 L224.00 251.00 L225.00 250.00 L226.00 249.00 L227.00 248.00 L228.00 247.00 L229.00 246.00 L230.00 245.00 L231.00 244.00 L232.00 243.00 L233.00 242.00 L234.00 241.00 L235.00 240.00 L236.00 239.00 L237.00 238.00 L238.00 237.00 L239.00 236.00 L240.00 235.00 L241.00 234.00 L242.00 233.00 L243.00 232.00 L244.00 231.00 L245.00 230.00 L246.00 229.00 L247.00 228.00 L248.00 227.00 L249.00 226.00 L250.00 225.00 L251.00 224.00 L252.00 223.00 L253.00 222.00 L254.00 221.00 L255.00 220.00 L256.00 219.00 L257.00 218.00 L258.00 217.00 L259.00 216.00 L260.00 215.00 L261.00 214.00 L262.00 213.00 L263.00 212.00 L264.00 211.00 L265.00 210.00 L266.00 209.00 L267.00 208.00 L268.00 207.00 L269.00 206.00 L270.00 205.00 L271.00 204.00 L272.00 203.00 L273.00 202.00 L274.00 201.00 L275.00 200.00 L276.00 199.00 L277.00 198.00 L278.00 197.00 L279.00 196.00 L280.00 195.00 L281.00 194.00 L282.00 193.00 L283.00 192.00 L284.00 191.00 L285.00 190.00 L286.00 189.00 L287.00 188.00 L288.00 187.00 L289.00 186.00 L290.00 185.00 L291.00 184.00 L292.00 183.00 L293.00 182.00 L294.00 181.00 L295.00 180.00 L296.00 179.00 L297.00 178.00 L298.00 177.00 L299.00 176.00 L300.00 175.00 L301.00 174.00 L302.00 173.00 L303.00 172.00 L304.00 171.00 L305.00 170.00 L306.00 169.00 L307.00 168.00 L308.00 167.00 L309.00 166.00 L310.00 165.00 L311.00 164.00 L312.00 163.00 L313.00 162.00 L314.00 161.00 L315.00 160.00 L316.00 159.00 L317.00 158.00 L318.00 157.00 L319.00 156.00 L320.00 155.00 L321.00 154.00 L322.00 153.00 L323.00 152.00 L324.00 151.00 L325.00 150.00 L326.00 149.00 L327.00 148.00 L328.00 147.00 L329.00 146.00 L330.00 145.00 L331.00 144.00 L332.00 143.00 L333.00 142.00 L334.00 141.00 L335.00 140.00 L336.00 139.00 L337.00 138.00 L338.00 137.00 L339.00 136.00 L340.00 135.00 L341.00 134.00 L342.00 133.00 L343.00 132.00 L344.00 131.00 L345.00 130.00 L346.00 129.00 L347.00 128.00 L348.00 127.00 L349.00 126.00 L350.00 125.00 L351.00 124.00 L352.00 123.00 L353.00 122.00 L354.00 121.00 L355.00 120.00 L356.00 119.00 L357.00 118.00 L358.00 117.00 L359.00 116.00 L360.00 115.00 L361.00 114.00 L362.00 113.00 L363.00 112.00 L364.00 111.00 L365.00 110.00 L366.00 109.00 L367.00 108.00 L368.00 107.00 L369.00 106.00 L370.00 105.00 L371.00 104.00 L372.00 103.00 L373.00 102.00 L374.00 101.00 L375.00 100.00 L376.00 99.00 L377.00 98.00 L378.00 97.00 L379.00 96.00 L380.00 95.00 L381.00 94.00 L382.00 93.00 L383.00 92.00 L384.00 91.00 L385.00 90.00 L386.00 89.00 L387.00 88.00 L388.00 87.00 L389.00 86.00 L390.00 85.00 L391.00 84.00 L392.00 83.00 L393.00 82.00 L394.00 81.00 L395.00 80.00 L396.00 79.00 L397.00 78.00 L398.00 77.00 L399.00 76.00 L400.00 75.00 L401.00 74.00 L402.00 73.00 L403.00 72.00 L404.00 71.00 L405.00 70.00 L406.00 69.00 L407.00 68.00 L408.00 67.00 L409.00 66.00 L410.00 65.00 L411.00 64.00 L412.00 63.00 L413.00 62.00 L414.00 61.00 L415.00 60.00 L416.00 59.00 L417.00 58.00 L418.00 57.00 L419.00 56.00 L420.00 55.00 L421.00 54.00 L422.00 53.00 L423.00 52.00 L424.00 51.00 L425.00 50.00 L426.00 49.00 L427.00 48.00 L428.00 47.00 L429.00 46.00 L430.00 45.00 L431.00 44.00 L432.00 43.00 L433.00 42.00 L434.00 41.00 L435.00 40.00 L436.00 39.00 L437.00 38.00 L438.00 37.00 L439.00 36.00 L440.00 35.00 L441.00 34.00 L442.00 33.00 L443.00 32.00 L444.00 31.00 L445.00 30.00 L446.00 29.00 L447.00 28.00 L448.00 27.00 L449.00 26.00 L450.00 25.00 L451.00 24.00 L452.00 23.00 L453.00 22.00 L454.00 21.00 L455.00 20.00 L456.00 19.00 L457.00 18.00 L458.00 17.00 L459.00 16.00 L460.00 15.00 L461.00 14.00 L462.00 13.00 L463.00 12.00 L464.00 11.00 L465.00 10.00 L466.00 9.00 L467.00 8.00 L468.00 7.00 L469.00 6.00 L470.00 5.00 L471.00 4.00 L472.00 3.00 L473.00 2.00 L474.00 1.00 L475.00 -0.00 " style="fill:none;stroke:#000000;stroke-width:1;" /><path d="M75.00 400.00 L75.00 400.00 L76.00 399.00 L77.00 398.00 L78.00 397.00 L79.00 396.00 L80.00 395.00 L81.00 394.00 L82.00 393.00 L83.00 392.00 L84.00 391.00 L85.00 390.00 L86.00 389.00 L87.00 388.00 L88.00 387.00 L89.00 386.00 L90.00 385.00 L91.00 384.00 L92.00 383.00 L93.00 382.00 L94.00 381.00 L95.00 380.00 L96.00 379.00 L97.00 378.00 L98.00 377.00 L99.00 376.00 L100.00 375.00 L101.00 374.00 L102.00 373.00 L103.00 372.00 L104.00 371.00 L105.00 370.00 L106.00 369.00 L107.00 368.00 L108.00 367.00 L109.00 366.00 L110.00 365.00 L111.00 364.00 L112.00 363.00 L113.00 362.00 L114.00 361.00 L115.00 360.00 L116.00 359.00 L117.00 358.00 L118.00 357.00 L119.00 356.00 L120.00 355.00 L121.00 354.00 L122.00 353.00 L123.00 352.00 L124.00 351.00 L125.00 350.00 L126.00 349.00 L127.00 348.00 L128.00 347.00 L129.00 346.00 L130.00 345.00 L131.00 344.00 L132.00 343.00 L133.00 342.00 L134.00 341.00 L135.00 340.00 L136.00 339.00 L137.00 338.00 L138.00 337.00 L139.00 336.00 L140.00 335.00 L141.00 334.00 L142.00 333.00 L143.00 332.00 L144.00 331.00 L145.00 330.00 L146.00 329.00 L147.00 328.00 L148.00 327.00 L149.00 326.00 L150.00 325.00 L151.00 324.00 L152.00 323.00 L153.00 322.00 L154.00 321.00 L155.00 320.00 L156.00 319.00 L157.00 318.00 L158.00 317.00 L159.00 316.00 L160.00 315.00 L161.00 314.00 L162.00 313.00 L163.00 312.00 L164.00 311.00 L165.00 310.00 L166.00 309.00 L167.00 308.00 L168.00 307.00 L169.00 306.00 L170.00 305.00 L171.00 304.00 L172.00 303.00 L173.00 302.00 L174.00 301.00 L175.00 300.00 L176.00 299.00 L177.00 298.00 L178.00 297.00 L179.00 296.00 L180.00 295.00 L181.00 294.00 L182.00 293.00 L183.00 292.00 L184.00 291.00 L185.00 290.00 L186.00 289.00 L187.00 288.00 L188.00 287.00 L189.00 286.00 L190.00 285.00 L191.00 284.00 L192.00 283.00 L193.00 282.00 L194.00 281.00 L195.00 280.00 L196.00 279.00 L197.00 278.00 L198.00 277.00 L199.00 276.00 L200.00 275.00 L201.00 274.00 L202.00 273.00 L203.00 272.00 L204.00 271.00 L205.00 270.00 L206.00 269.00 L207.00 268.00 L208.00 267.00 L209.00 266.00 L210.00 265.00 L211.00 264.00 L212.00 263.00 L213.00 262.00 L214.00 261.00 L215.00 260.00 L216.00 259.00 L217.00 258.00 L218.00 257.00 L219.00 256.00 L220.00 255.00 L221.00 254.00 L222.00 253.00 L223.00 252.00 L224.00 251.00 L225.00 250.00 L226.00 249.00 L227.00 248.00 L228.00 247.00 L229.00 246.00 L230.00 245.00 L231.00 244.00 L232.00 243.00 L233.00 242.00 L234.00 241.00 L235.00 240.00 L236.00 239.00 L237.00 238.00 L238.00 237.00 L239.00 236.00 L240.00 235.00 L241.00 234.00 L242.00 233.00 L243.00 232.00 L244.00 231.00 L245.00 230.00 L246.00 229.00 L247.00 228.00 L248.00 227.00 L249.00 226.00 L250.00 225.00 L251.00 224.00 L252.00 223.00 L253.00 222.00 L254.00 221.00 L255.00 220.00 L256.00 219.00 L257.00 218.00 L258.00 217.00 L259.00 216.00 L260.00 215.00 L261.00 214.00 L262.00 213.00 L263.00 212.00 L264.00 211.00 L265.00 210.00 L266.00 209.00 L267.00 208.00 L268.00 207.00 L269.00 206.00 L270.00 205.00 L271.00 204.00 L272.00 203.00 L273.00 202.00 L274.00 201.00 L275.00 200.00 L276.00 199.00 L277.00 198.00 L278.00 197.00 L279.00 196.00 L280.00 195.00 L281.00 194.00 L282.00 193.00 L283.00 192.00 L284.00 191.00 L285.00 190.00 L286.00 189.00 L287.00 188.00 L288.00 187.00 L289.00 186.00 L290.00 185.00 L291.00 184.00 L292.00 183.00 L293.00 182.00 L294.00 181.00 L295.00 180.00 L296.00 179.00 L297.00 178.00 L298.00 177.00 L299.00 176.00 L300.00 175.00 L301.00 174.00 L302.00 173.00 L303.00 172.00 L304.00 171.00 L305.00 170.00 L306.00 169.00 L307.00 168.00 L308.00 167.00 L309.00 166.00 L310.00 165.00 L311.00 164.00 L312.00 163.00 L313.00 162.00 L314.00 161.00 L315.00 160.00 L316.00 159.00 L317.00 158.00 L318.00 157.00 L319.00 156.00 L320.00 155.00 L321.00 154.00 L322.00 153.00 L323.00 152.00 L324.00 151.00 L325.00 150.00 L326.00 149.00 L327.00 148.00 L328.00 147.00 L329.00 146.00 L330.00 145.00 L331.00 144.00 L332.00 143.00 L333.00 142.00 L334.00 141.00 L335.00 140.00 L336.00 139.00 L337.00 138.00 L338.00 137.00 L339.00 136.00 L340.00 135.00 L341.00 134.00 L342.00 133.00 L343.00 132.00 L344.00 131.00 L345.00 130.00 L346.00 129.00 L347.00 128.00 L348.00 127.00 L349.00 126.00 L350.00 125.00 L351.00 124.00 L352.00 123.00 L353.00 122.00 L354.00 121.00 L355.00 120.00 L356.00 119.00 L357.00 118.00 L358.00 117.00 L359.00 116.00 L360.00 115.00 L361.00 114.00 L362.00 113.00 L363.00 112.00 L364.00 111.00 L365.00 110.00 L366.00 109.00 L367.00 108.00 L368.00 107.00 L369.00 106.00 L370.00 105.00 L371.00 104.00 L372.00 103.00 L373.00 102.00 L374.00 101.00 L375.00 100.00 L376.00 99.00 L377.00 98.00 L378.00 97.00 L379.00 96.00 L380.00 95.00 L381.00 94.00 L382.00 93.00 L383.00 92.00 L384.00 91.00 L385.00 90.00 L386.00 89.00 L387.00 88.00 L388.00 87.00 L389.00 86.00 L390.00 85.00 L391.00 84.00 L392.00 83.00 L393.00 82.00 L394.00 81.00 L395.00 80.00 L396.00 79.00 L397.00 78.00 L398.00 77.00 L399.00 76.00 L400.00 75.00 L401.00 74.00 L402.00 73.00 L403.00 72.00 L404.00 71.00 L405.00 70.00 L406.00 69.00 L407.00 68.00 L408.00 67.00 L409.00 66.00 L410.00 65.00 L411.00 64.00 L412.00 63.00 L413.00 62.00 L414.00 61.00 L415.00 60.00 L416.00 59.00 L417.00 58.00 L418.00 57.00 L419.00 56.00 L420.00 55.00 L421.00 54.00 L422.00 53.00 L423.00 52.00 L424.00 51.00 L425.00 50.00 L426.00 49.00 L427.00 48.00 L428.00 47.00 L429.00 46.00 L430.00 45.00 L431.00 44.00 L432.00 43.00 L433.00 42.00 L434.00 41.00 L435.00 40.00 L436.00 39.00 L437.00 38.00 L438.00 37.00 L439.00 36.00 L440.00 35.00 L441.00 34.00 L442.00 33.00 L443.00 32.00 L444.00 31.00 L445.00 30.00 L446.00 29.00 L447.00 28.00 L448.00 27.00 L449.00 26.00 L450.00 25.00 L451.00 24.00 L452.00 23.00 L453.00 22.00 L454.00 21.00 L455.00 20.00 L456.00 19.00 L457.00 18.00 L458.00 17.00 L459.00 16.00 L460.00 15.00 L461.00 14.00 L462.00 13.00 L463.00 12.00 L464.00 11.00 L465.00 10.00 L466.00 9.00 L467.00 8.00 L468.00 7.00 L469.00 6.00 L470.00 5.00 L471.00 4.00 L472.00 3.00 L473.00 2.00 L474.00 1.00 L475.00 -0.00 " style="fill:none;stroke:#000000;stroke-width:1;" /></g></svg>