<?xml version="1.0" standalone="no"?><!DOCTYPE svg PUBLIC "-//W3C//DTD SVG 1.1//EN" "http://www.w3.org/Graphics/SVG/1.1/DTD/svg11.dtd"><svg xmlns="http://www.w3.org/2000/svg" viewBox="0 0 850 550" version="1.1"><clipPath id="box"><rect x="0" y="0" width="850" height="550" style="fill:none;stroke:none;" /></clipPath><g clip-path="url(#box)"><rect x="0.00" y="0.00" width="850.00" height="550.00" style="fill:#FFFFFF;stroke:none;" /><path d="M0.00 495.00 L850.00 495.00 M0.00 409.00 L850.00 409.00 M0.00 323.00 L850.00 323.00 M0.00 237.00 L850.00 237.00 M0.00 151.00 L850.00 151.00 M0.00 65.00 L850.00 65.00 M29.00 0.00 L29.00 550.00 M111.00 0.00 L111.00 550.00 M193.00 0.00 L193.00 550.00 M275.00 0.00 L275.00 550.00 M356.00 0.00 L356.00 550.00 M438.00 0.00 L438.00 550.00 M520.00 0.00 L520.00 550.00 M602.00 0.00 L602.00 550.00 M683.00 0.00 L683.00 550.00 M765.00 0.00 L765.00 550.00 M847.00 0.00 L847.00 550.00 " style="fill:none;stroke:#D0D0D0;stroke-width:1;" /><path d="M275.13 0.00 L275.13 550.00 " style="fill:none;stroke:#000000;stroke-width:1;" /><path d="M266.63 581.41 L283.63 581.41 M266.63 495.47 L283.63 495.47 M266.63 409.53 L283.63 409.53 M266.63 323.60 L283.63 323.60 M266.63 237.66 L283.63 237.66 M266.63 151.72 L283.63 151.72 M266.63 65.78 L283.63 65.78 " style="fill:none;stroke:#000000;stroke-width:1;" /><path d="M0.00 495.47 L850.00 495.47 " style="fill:none;stroke:#000000;stroke-width:1;" /><path d="M-51.80 486.97 L-51.80 503.97 M29.93 486.97 L29.93 503.97 M111.66 486.97 L111.66 503.97 M193.39 486.97 L193.39 503.97 M275.13 486.97 L275.13 503.97 M356.86 486.97 L356.86 503.97 M438.59 486.97 L438.59 503.97 M520.32 486.97 L520.32 503.97 M602.05 486.97 L602.05 503.97 M683.78 486.97 L683.78 503.97 M765.51 486.97 L765.51 503.97 M847.24 486.97 L847.24 503.97 " style="fill:none;stroke:#000000;stroke-width:1;" /><text x="285.7503846153847" y="497.9712500000001" text-anchor="start" style="font:10px Droid Sans,Trebuchet MS,Arial,Helvetica,sans-serif;stroke:none;fill:#000000">0</text><text x="285.7503846153847" y="412.03375000000005" text-anchor="start" style="font:10px Droid Sans,Trebuchet MS,Arial,Helvetica,sans-serif;stroke:none;fill:#000000">1</text><text x="285.7503846153847" y="326.09625" text-anchor="start" style="font:10px Droid Sans,Trebuchet MS,Arial,Helvetica,sans-serif;stroke:none;fill:#000000">2</text><text x="285.7503846153847" y="240.15874999999994" text-anchor="start" style="font:10px Droid Sans,Trebuchet MS,Arial,Helvetica,sans-serif;stroke:none;fill:#000000">3</text><text x="285.7503846153847" y="154.22124999999988" text-anchor="start" style="font:10px Droid Sans,Trebuchet MS,Arial,Helvetica,sans-serif;stroke:none;fill:#000000">4</text><text x="285.7503846153847" y="68.2837499999998" text-anchor="start" style="font:10px Droid Sans,Trebuchet MS,Arial,Helvetica,sans-serif;stroke:none;fill:#000000">5</text><text x="29.933076923076758" y="514.09625" text-anchor="middle" style="font:10px Droid Sans,Trebuchet MS,Arial,Helvetica,sans-serif;stroke:none;fill:#000000">-3</text><text x="111.66384615384605" y="514.09625" text-anchor="middle" style="font:10px Droid Sans,Trebuchet MS,Arial,Helvetica,sans-serif;stroke:none;fill:#000000">-2</text><text x="193.39461538461535" y="514.09625" text-anchor="middle" style="font:10px Droid Sans,Trebuchet MS,Arial,Helvetica,sans-serif;stroke:none;fill:#000000">-1</text><text x="275.1253846153847" y="514.09625" text-anchor="middle" style="font:10px Droid Sans,Trebuchet MS,Arial,Helvetica,sans-serif;stroke:none;fill:#000000">0</text><text x="356.8561538461539" y="514.09625" text-anchor="middle" style="font:10px Droid Sans,Trebuchet MS,Arial,Helvetica,sans-serif;stroke:none;fill:#000000">1</text><text x="438.58692307692326" y="514.09625" text-anchor="middle" style="font:10px Droid Sans,Trebuchet MS,Arial,Helvetica,sans-serif;stroke:none;fill:#000000">2</text><text x="520.3176923076926" y="514.09625" text-anchor="middle" style="font:10px Droid Sans,Trebuchet MS,Arial,Helvetica,sans-serif;stroke:none;fill:#000000">3</text><text x="602.0484615384618" y="514.09625" text-anchor="middle" style="font:10px Droid Sans,Trebuchet MS,Arial,Helvetica,sans-serif;stroke:none;fill:#000000">4</text><text x="683.7792307692312" y="514.09625" text-anchor="middle" style="font:10px Droid Sans,Trebuchet MS,Arial,Helvetica,sans-serif;stroke:none;fill:#000000">5</text><text x="765.5100000000004" y="514.09625" text-anchor="middle" style="font:10px Droid Sans,Trebuchet MS,Arial,Helvetica,sans-serif;stroke:none;fill:#000000">6</text><path d="M290.06 550.00 L290.06 550.00 L290.54 549.00 L291.01 548.00 L291.49 547.00 L291.96 546.00 L292.44 545.00 L292.92 544.00 L293.39 543.00 L293.87 542.00 L294.34 541.00 L294.82 540.00 L295.29 539.00 L295.77 538.00 L296.24 537.00 L296.72 536.00 L297.19 535.00 L297.67 534.00 L298.15 533.00 L298.62 532.00 L299.10 531.00 L299.57 530.00 L300.05 529.00 L300.52 528.00 L301.00 527.00 L301.47 526.00 L301.95 525.00 L302.43 524.00 L302.90 523.00 L303.38 522.00 L303.85 521.00 L304.33 520.00 L304.80 519.00 L305.28 518.00 L305.75 517.00 L306.23 516.00 L306.71 515.00 L307.18 514.00 L307.66 513.00 L308.13 512.00 L308.61 511.00 L309.08 510.00 L309.56 509.00 L310.03 508.00 L310.51 507.00 L310.99 506.00 L311.46 505.00 L311.94 504.00 L312.41 503.00 L312.89 502.00 L313.36 501.00 L313.84 500.00 L314.31 499.00 L314.79 498.00 L315.26 497.00 L315.74 496.00 L316.22 495.00 L316.69 494.00 L317.17 493.00 L317.64 492.00 L318.12 491.00 L318.59 490.00 L319.07 489.00 L319.54 488.00 L320.02 487.00 L320.50 486.00 L320.97 485.00 L321.45 484.00 L321.92 483.00 L322.40 482.00 L322.87 481.00 L323.35 480.00 L323.82 479.00 L324.30 478.00 L324.78 477.00 L325.25 476.00 L325.73 475.00 L326.20 474.00 L326.68 473.00 L327.15 472.00 L327.63 471.00 L328.10 470.00 L328.58 469.00 L329.06 468.00 L329.53 467.00 L330.01 466.00 L330.48 465.00 L330.96 464.00 L331.43 463.00 L331.91 462.00 L332.38 461.00 L332.86 460.00 L333.33 459.00 L333.81 458.00 L334.29 457.00 L334.76 456.00 L335.24 455.00 L335.71 454.00 L336.19 453.00 L336.66 452.00 L337.14 451.00 L337.61 450.00 L338.09 449.00 L338.57 448.00 L339.04 447.00 L339.52 446.00 L339.99 445.00 L340.47 444.00 L340.94 443.00 L341.42 442.00 L341.89 441.00 L342.37 440.00 L342.85 439.00 L343.32 438.00 L343.80 437.00 L344.27 436.00 L344.75 435.00 L345.22 434.00 L345.70 433.00 L346.17 432.00 L346.65 431.00 L347.12 430.00 L347.60 429.00 L348.08 428.00 L348.55 427.00 L349.03 426.00 L349.50 425.00 L349.98 424.00 L350.45 423.00 L350.93 422.00 L351.40 421.00 L351.88 420.00 L352.36 419.00 L352.83 418.00 L353.31 417.00 L353.78 416.00 L354.26 415.00 L354.73 414.00 L355.21 413.00 L355.68 412.00 L356.16 411.00 L356.64 410.00 L357.11 409.00 L357.59 408.00 L358.06 407.00 L358.54 406.00 L359.01 405.00 L359.49 404.00 L359.96 403.00 L360.44 402.00 L360.92 401.00 L361.39 400.00 L361.87 399.00 L362.34 398.00 L362.82 397.00 L363.29 396.00 L363.77 395.00 L364.24 394.00 L364.72 393.00 L365.19 392.00 L365.67 391.00 L366.15 390.00 L366.62 389.00 L367.10 388.00 L367.57 387.00 L368.05 386.00 L368.52 385.00 L369.00 384.00 L369.47 383.00 L369.95 382.00 L370.43 381.00 L370.90 380.00 L371.38 379.00 L371.85 378.00 L372.33 377.00 L372.80 376.00 L373.28 375.00 L373.75 374.00 L374.23 373.00 L374.71 372.00 L375.18 371.00 L375.66 370.00 L376.13 369.00 L376.61 368.00 L377.08 367.00 L377.56 366.00 L378.03 365.00 L378.51 364.00 L378.99 363.00 L379.46 362.00 L379.94 361.00 L380.41 360.00 L380.89 359.00 L381.36 358.00 L381.84 357.00 L382.31 356.00 L382.79 355.00 L383.26 354.00 L383.74 353.00 L384.22 352.00 L384.69 351.00 L385.17 350.00 L385.64 349.00 L386.12 348.00 L386.59 347.00 L387.07 346.00 L387.54 345.00 L388.02 344.00 L388.50 343.00 L388.97 342.00 L389.45 341.00 L389.92 340.00 L390.40 339.00 L390.87 338.00 L391.35 337.00 L391.82 336.00 L392.30 335.00 L392.78 334.00 L393.25 333.00 L393.73 332.00 L394.20 331.00 L394.68 330.00 L395.15 329.00 L395.63 328.00 L396.10 327.00 L396.58 326.00 L397.06 325.00 L397.53 324.00 L398.01 323.00 L398.48 322.00 L398.96 321.00 L399.43 320.00 L399.91 319.00 L400.38 318.00 L400.86 317.00 L401.33 316.00 L401.81 315.00 L402.29 314.00 L402.76 313.00 L403.24 312.00 L403.71 311.00 L404.19 310.00 L404.66 309.00 L405.14 308.00 L405.61 307.00 L406.09 306.00 L406.57 305.00 L407.04 304.00 L407.52 303.00 L407.99 302.00 L408.47 301.00 L408.94 300.00 L409.42 299.00 L409.89 298.00 L410.37 297.00 L410.85 296.00 L411.32 295.00 L411.80 294.00 L412.27 293.00 L412.75 292.00 L413.22 291.00 L413.70 290.00 L414.17 289.00 L414.65 288.00 L415.12 287.00 L415.60 286.00 L416.08 285.00 L416.55 284.00 L417.03 283.00 L417.50 282.00 L417.98 281.00 L418.45 280.00 L418.93 279.00 L419.40 278.00 L419.88 277.00 L420.36 276.00 L420.83 275.00 L421.31 274.00 L421.78 273.00 L422.26 272.00 L422.73 271.00 L423.21 270.00 L423.68 269.00 L424.16 268.00 L424.64 267.00 L425.11 266.00 L425.59 265.00 L426.06 264.00 L426.54 263.00 L427.01 262.00 L427.49 261.00 L427.96 260.00 L428.44 259.00 L428.92 258.00 L429.39 257.00 L429.87 256.00 L430.34 255.00 L430.82 254.00 L431.29 253.00 L431.77 252.00 L432.24 251.00 L432.72 250.00 L433.19 249.00 L433.67 248.00 L434.15 247.00 L434.62 246.00 L435.10 245.00 L435.57 244.00 L436.05 243.00 L436.52 242.00 L437.00 241.00 L437.47 240.00 L437.95 239.00 L438.43 238.00 L438.90 237.00 L439.38 236.00 L439.85 235.00 L440.33 234.00 L440.80 233.00 L441.28 232.00 L441.75 231.00 L442.23 230.00 L442.71 229.00 L443.18 228.00 L443.66 227.00 L444.13 226.00 L444.61 225.00 L445.08 224.00 L445.56 223.00 L446.03 222.00 L446.51 221.00 L446.99 220.00 L447.46 219.00 L447.94 218.00 L448.41 217.00 L448.89 216.00 L449.36 215.00 L449.84 214.00 L450.31 213.00 L450.79 212.00 L451.26 211.00 L451.74 210.00 L452.22 209.00 L452.69 208.00 L453.17 207.00 L453.64 206.00 L454.12 205.00 L454.59 204.00 L455.07 203.00 L455.54 202.00 L456.02 201.00 L456.50 200.00 L456.97 199.00 L457.45 198.00 L457.92 197.00 L458.40 196.00 L458.87 195.00 L459.35 194.00 L459.82 193.00 L460.30 192.00 L460.78 191.00 L461.25 190.00 L461.73 189.00 L462.20 188.00 L462.68 187.00 L463.15 186.00 L463.63 185.00 L464.10 184.00 L464.58 183.00 L465.06 182.00 L465.53 181.00 L466.01 180.00 L466.48 179.00 L466.96 178.00 L467.43 177.00 L467.91 176.00 L468.38 175.00 L468.86 174.00 L469.33 173.00 L469.81 172.00 L470.29 171.00 L470.76 170.00 L471.24 169.00 L471.71 168.00 L472.19 167.00 L472.66 166.00 L473.14 165.00 L473.61 164.00 L474.09 163.00 L474.57 162.00 L475.04 161.00 L475.52 160.00 L475.99 159.00 L476.47 158.00 L476.94 157.00 L477.42 156.00 L477.89 155.00 L478.37 154.00 L478.85 153.00 L479.32 152.00 L479.80 151.00 L480.27 150.00 L480.75 149.00 L481.22 148.00 L481.70 147.00 L482.17 146.00 L482.65 145.00 L483.12 144.00 L483.60 143.00 L484.08 142.00 L484.55 141.00 L485.03 140.00 L485.50 139.00 L485.98 138.00 L486.45 137.00 L486.93 136.00 L487.40 135.00 L487.88 134.00 L488.36 133.00 L488.83 132.00 L489.31 131.00 L489.78 130.00 L490.26 129.00 L490.73 128.00 L491.21 127.00 L491.68 126.00 L492.16 125.00 L492.64 124.00 L493.11 123.00 L493.59 122.00 L494.06 121.00 L494.54 120.00 L495.01 119.00 L495.49 118.00 L495.96 117.00 L496.44 116.00 L496.92 115.00 L497.39 114.00 L497.87 113.00 L498.34 112.00 L498.82 111.00 L499.29 110.00 L499.77 109.00 L500.24 108.00 L500.72 107.00 L501.19 106.00 L501.67 105.00 L502.15 104.00 L502.62 103.00 L503.10 102.00 L503.57 101.00 L504.05 100.00 L504.52 99.00 L505.00 98.00 L505.47 97.00 L505.95 96.00 L506.43 95.00 L506.90 94.00 L507.38 93.00 L507.85 92.00 L508.33 91.00 L508.80 90.00 L509.28 89.00 L509.75 88.00 L510.23 87.00 L510.71 86.00 L511.18 85.00 L511.66 84.00 L512.13 83.00 L512.61 82.00 L513.08 81.00 L513.56 80.00 L514.03 79.00 L514.51 78.00 L514.99 77.00 L515.46 76.00 L515.94 75.00 L516.41 74.00 L516.89 73.00 L517.36 72.00 L517.84 71.00 L518.31 70.00 L518.79 69.00 L519.26 68.00 L519.74 67.00 L520.22 66.00 L520.69 65.00 L521.17 64.00 L521.64 63.00 L522.12 62.00 L522.59 61.00 L523.07 60.00 L523.54 59.00 L524.02 58.00 L524.50 57.00 L524.97 56.00 L525.45 55.00 L525.92 54.00 L526.40 53.00 L526.87 52.00 L527.35 51.00 L527.82 50.00 L528.30 49.00 L528.78 48.00 L529.25 47.00 L529.73 46.00 L530.20 45.00 L530.68 44.00 L531.15 43.00 L531.63 42.00 L532.10 41.00 L532.58 40.00 L533.06 39.00 L533.53 38.00 L534.01 37.00 L534.48 36.00 L534.96 35.00 L535.43 34.00 L535.91 33.00 L536.38 32.00 L536.86 31.00 L537.33 30.00 L537.81 29.00 L538.29 28.00 L538.76 27.00 L539.24 26.00 L539.71 25.00 L540.19 24.00 L540.66 23.00 L541.14 22.00 L541.61 21.00 L542.09 20.00 L542.57 19.00 L543.04 18.00 L543.52 17.00 L543.99 16.00 L544.47 15.00 L544.94 14.00 L545.42 13.00 L545.89 12.00 L546.37 11.00 L546.85 10.00 L547.32 9.00 L547.80 8.00 L548.27 7.00 L548.75 6.00 L549.22 5.00 L549.70 4.00 L550.17 3.00 L550.65 2.00 L551.12 1.00 L551.60 -0.00 " style="fill:none;stroke:#000000;stroke-width:1;" /><path d="M371.79 550.00 L371.79 550.00 L372.27 549.00 L372.74 548.00 L373.22 547.00 L373.69 546.00 L374.17 545.00 L374.65 544.00 L375.12 543.00 L375.60 542.00 L376.07 541.00 L376.55 540.00 L377.02 539.00 L377.50 538.00 L377.97 537.00 L378.45 536.00 L378.92 535.00 L379.40 534.00 L379.88 533.00 L380.35 532.00 L380.83 531.00 L381.30 530.00 L381.78 529.00 L382.25 528.00 L382.73 527.00 L383.20 526.00 L383.68 525.00 L384.16 524.00 L384.63 523.00 L385.11 522.00 L385.58 521.00 L386.06 520.00 L386.53 519.00 L387.01 518.00 L387.48 517.00 L387.96 516.00 L388.44 515.00 L388.91 514.00 L389.39 513.00 L389.86 512.00 L390.34 511.00 L390.81 510.00 L391.29 509.00 L391.76 508.00 L392.24 507.00 L392.72 506.00 L393.19 505.00 L393.67 504.00 L394.14 503.00 L394.62 502.00 L395.09 501.00 L395.57 500.00 L396.04 499.00 L396.52 498.00 L396.99 497.00 L397.47 496.00 L397.95 495.00 L398.42 494.00 L398.90 493.00 L399.37 492.00 L399.85 491.00 L400.32 490.00 L400.80 489.00 L401.27 488.00 L401.75 487.00 L402.23 486.00 L402.70 485.00 L403.18 484.00 L403.65 483.00 L404.13 482.00 L404.60 481.00 L405.08 480.00 L405.55 479.00 L406.03 478.00 L406.51 477.00 L406.98 476.00 L407.46 475.00 L407.93 474.00 L408.41 473.00 L408.88 472.00 L409.36 471.00 L409.83 470.00 L410.31 469.00 L410.79 468.00 L411.26 467.00 L411.74 466.00 L412.21 465.00 L412.69 464.00 L413.16 463.00 L413.64 462.00 L414.11 461.00 L414.59 460.00 L415.06 459.00 L415.54 458.00 L416.02 457.00 L416.49 456.00 L416.97 455.00 L417.44 454.00 L417.92 453.00 L418.39 452.00 L418.87 451.00 L419.34 450.00 L419.82 449.00 L420.30 448.00 L420.77 447.00 L421.25 446.00 L421.72 445.00 L422.20 444.00 L422.67 443.00 L423.15 442.00 L423.62 441.00 L424.10 440.00 L424.58 439.00 L425.05 438.00 L425.53 437.00 L426.00 436.00 L426.48 435.00 L426.95 434.00 L427.43 433.00 L427.90 432.00 L428.38 431.00 L428.85 430.00 L429.33 429.00 L429.81 428.00 L430.28 427.00 L430.76 426.00 L431.23 425.00 L431.71 424.00 L432.18 423.00 L432.66 422.00 L433.13 421.00 L433.61 420.00 L434.09 419.00 L434.56 418.00 L435.04 417.00 L435.51 416.00 L435.99 415.00 L436.46 414.00 L436.94 413.00 L437.41 412.00 L437.89 411.00 L438.37 410.00 L438.84 409.00 L439.32 408.00 L439.79 407.00 L440.27 406.00 L440.74 405.00 L441.22 404.00 L441.69 403.00 L442.17 402.00 L442.65 401.00 L443.12 400.00 L443.60 399.00 L444.07 398.00 L444.55 397.00 L445.02 396.00 L445.50 395.00 L445.97 394.00 L446.45 393.00 L446.92 392.00 L447.40 391.00 L447.88 390.00 L448.35 389.00 L448.83 388.00 L449.30 387.00 L449.78 386.00 L450.25 385.00 L450.73 384.00 L451.20 383.00 L451.68 382.00 L452.16 381.00 L452.63 380.00 L453.11 379.00 L453.58 378.00 L454.06 377.00 L454.53 376.00 L455.01 375.00 L455.48 374.00 L455.96 373.00 L456.44 372.00 L456.91 371.00 L457.39 370.00 L457.86 369.00 L458.34 368.00 L458.81 367.00 L459.29 366.00 L459.76 365.00 L460.24 364.00 L460.72 363.00 L461.19 362.00 L461.67 361.00 L462.14 360.00 L462.62 359.00 L463.09 358.00 L463.57 357.00 L464.04 356.00 L464.52 355.00 L464.99 354.00 L465.47 353.00 L465.95 352.00 L466.42 351.00 L466.90 350.00 L467.37 349.00 L467.85 348.00 L468.32 347.00 L468.80 346.00 L469.27 345.00 L469.75 344.00 L470.23 343.00 L470.70 342.00 L471.18 341.00 L471.65 340.00 L472.13 339.00 L472.60 338.00 L473.08 337.00 L473.55 336.00 L474.03 335.00 L474.51 334.00 L474.98 333.00 L475.46 332.00 L475.93 331.00 L476.41 330.00 L476.88 329.00 L477.36 328.00 L477.83 327.00 L478.31 326.00 L478.79 325.00 L479.26 324.00 L479.74 323.00 L480.21 322.00 L480.69 321.00 L481.16 320.00 L481.64 319.00 L482.11 318.00 L482.59 317.00 L483.06 316.00 L483.54 315.00 L484.02 314.00 L484.49 313.00 L484.97 312.00 L485.44 311.00 L485.92 310.00 L486.39 309.00 L486.87 308.00 L487.34 307.00 L487.82 306.00 L488.30 305.00 L488.77 304.00 L489.25 303.00 L489.72 302.00 L490.20 301.00 L490.67 300.00 L491.15 299.00 L491.62 298.00 L492.10 297.00 L492.58 296.00 L493.05 295.00 L493.53 294.00 L494.00 293.00 L494.48 292.00 L494.95 291.00 L495.43 290.00 L495.90 289.00 L496.38 288.00 L496.85 287.00 L497.33 286.00 L497.81 285.00 L498.28 284.00 L498.76 283.00 L499.23 282.00 L499.71 281.00 L500.18 280.00 L500.66 279.00 L501.13 278.00 L501.61 277.00 L502.09 276.00 L502.56 275.00 L503.04 274.00 L503.51 273.00 L503.99 272.00 L504.46 271.00 L504.94 270.00 L505.41 269.00 L505.89 268.00 L506.37 267.00 L506.84 266.00 L507.32 265.00 L507.79 264.00 L508.27 263.00 L508.74 262.00 L509.22 261.00 L509.69 260.00 L510.17 259.00 L510.65 258.00 L511.12 257.00 L511.60 256.00 L512.07 255.00 L512.55 254.00 L513.02 253.00 L513.50 252.00 L513.97 251.00 L514.45 250.00 L514.92 249.00 L515.40 248.00 L515.88 247.00 L516.35 246.00 L516.83 245.00 L517.30 244.00 L517.78 243.00 L518.25 242.00 L518.73 241.00 L519.20 240.00 L519.68 239.00 L520.16 238.00 L520.63 237.00 L521.11 236.00 L521.58 235.00 L522.06 234.00 L522.53 233.00 L523.01 232.00 L523.48 231.00 L523.96 230.00 L524.44 229.00 L524.91 228.00 L525.39 227.00 L525.86 226.00 L526.34 225.00 L526.81 224.00 L527.29 223.00 L527.76 222.00 L528.24 221.00 L528.72 220.00 L529.19 219.00 L529.67 218.00 L530.14 217.00 L530.62 216.00 L531.09 215.00 L531.57 214.00 L532.04 213.00 L532.52 212.00 L532.99 211.00 L533.47 210.00 L533.95 209.00 L534.42 208.00 L534.90 207.00 L535.37 206.00 L535.85 205.00 L536.32 204.00 L536.80 203.00 L537.27 202.00 L537.75 201.00 L538.23 200.00 L538.70 199.00 L539.18 198.00 L539.65 197.00 L540.13 196.00 L540.60 195.00 L541.08 194.00 L541.55 193.00 L542.03 192.00 L542.51 191.00 L542.98 190.00 L543.46 189.00 L543.93 188.00 L544.41 187.00 L544.88 186.00 L545.36 185.00 L545.83 184.00 L546.31 183.00 L546.79 182.00 L547.26 181.00 L547.74 180.00 L548.21 179.00 L548.69 178.00 L549.16 177.00 L549.64 176.00 L550.11 175.00 L550.59 174.00 L551.06 173.00 L551.54 172.00 L552.02 171.00 L552.49 170.00 L552.97 169.00 L553.44 168.00 L553.92 167.00 L554.39 166.00 L554.87 165.00 L555.34 164.00 L555.82 163.00 L556.30 162.00 L556.77 161.00 L557.25 160.00 L557.72 159.00 L558.20 158.00 L558.67 157.00 L559.15 156.00 L559.62 155.00 L560.10 154.00 L560.58 153.00 L561.05 152.00 L561.53 151.00 L562.00 150.00 L562.48 149.00 L562.95 148.00 L563.43 147.00 L563.90 146.00 L564.38 145.00 L564.85 144.00 L565.33 143.00 L565.81 142.00 L566.28 141.00 L566.76 140.00 L567.23 139.00 L567.71 138.00 L568.18 137.00 L568.66 136.00 L569.13 135.00 L569.61 134.00 L570.09 133.00 L570.56 132.00 L571.04 131.00 L571.51 130.00 L571.99 129.00 L572.46 128.00 L572.94 127.00 L573.41 126.00 L573.89 125.00 L574.37 124.00 L574.84 123.00 L575.32 122.00 L575.79 121.00 L576.27 120.00 L576.74 119.00 L577.22 118.00 L577.69 117.00 L578.17 116.00 L578.65 115.00 L579.12 114.00 L579.60 113.00 L580.07 112.00 L580.55 111.00 L581.02 110.00 L581.50 109.00 L581.97 108.00 L582.45 107.00 L582.92 106.00 L583.40 105.00 L583.88 104.00 L584.35 103.00 L584.83 102.00 L585.30 101.00 L585.78 100.00 L586.25 99.00 L586.73 98.00 L587.20 97.00 L587.68 96.00 L588.16 95.00 L588.63 94.00 L589.11 93.00 L589.58 92.00 L590.06 91.00 L590.53 90.00 L591.01 89.00 L591.48 88.00 L591.96 87.00 L592.44 86.00 L592.91 85.00 L593.39 84.00 L593.86 83.00 L594.34 82.00 L594.81 81.00 L595.29 80.00 L595.76 79.00 L596.24 78.00 L596.72 77.00 L597.19 76.00 L597.67 75.00 L598.14 74.00 L598.62 73.00 L599.09 72.00 L599.57 71.00 L600.04 70.00 L600.52 69.00 L600.99 68.00 L601.47 67.00 L601.95 66.00 L602.42 65.00 L602.90 64.00 L603.37 63.00 L603.85 62.00 L604.32 61.00 L604.80 60.00 L605.27 59.00 L605.75 58.00 L606.23 57.00 L606.70 56.00 L607.18 55.00 L607.65 54.00 L608.13 53.00 L608.60 52.00 L609.08 51.00 L609.55 50.00 L610.03 49.00 L610.51 48.00 L610.98 47.00 L611.46 46.00 L611.93 45.00 L612.41 44.00 L612.88 43.00 L613.36 42.00 L613.83 41.00 L614.31 40.00 L614.79 39.00 L615.26 38.00 L615.74 37.00 L616.21 36.00 L616.69 35.00 L617.16 34.00 L617.64 33.00 L618.11 32.00 L618.59 31.00 L619.06 30.00 L619.54 29.00 L620.02 28.00 L620.49 27.00 L620.97 26.00 L621.44 25.00 L621.92 24.00 L622.39 23.00 L622.87 22.00 L623.34 21.00 L623.82 20.00 L624.30 19.00 L624.77 18.00 L625.25 17.00 L625.72 16.00 L626.20 15.00 L626.67 14.00 L627.15 13.00 L627.62 12.00 L628.10 11.00 L628.58 10.00 L629.05 9.00 L629.53 8.00 L630.00 7.00 L630.48 6.00 L630.95 5.00 L631.43 4.00 L631.90 3.00 L632.38 2.00 L632.85 1.00 L633.33 -0.00 " style="fill:none;stroke:#000000;stroke-width:1;" /></g></svg>