<?xml version="1.0" standalone="no"?><!DOCTYPE svg PUBLIC "-//W3C//DTD SVG 1.1//EN" "http://www.w3.org/Graphics/SVG/1.1/DTD/svg11.dtd"><svg xmlns="http://www.w3.org/2000/svg" viewBox="0 0 650 450" version="1.1"><clipPath id="box"><rect x="0" y="0" width="650" height="450" style="fill:none;stroke:none;" /></clipPath><g clip-path="url(#box)"><rect x="0.00" y="0.00" width="650.00" height="450.00" style="fill:#FFFFFF;stroke:none;" /><path d="M0.00 427.00 L650.00 427.00 M0.00 381.00 L650.00 381.00 M0.00 335.00 L650.00 335.00 M0.00 289.00 L650.00 289.00 M0.00 243.00 L650.00 243.00 M0.00 196.00 L650.00 196.00 M0.00 150.00 L650.00 150.00 M0.00 104.00 L650.00 104.00 M0.00 58.00 L650.00 58.00 M0.00 12.00 L650.00 12.00 M7.00 0.00 L7.00 450.00 M48.00 0.00 L48.00 450.00 M89.00 0.00 L89.00 450.00 M130.00 0.00 L130.00 450.00 M171.00 0.00 L171.00 450.00 M212.00 0.00 L212.00 450.00 M253.00 0.00 L253.00 450.00 M294.00 0.00 L294.00 450.00 M335.00 0.00 L335.00 450.00 M376.00 0.00 L376.00 450.00 M417.00 0.00 L417.00 450.00 M458.00 0.00 L458.00 450.00 M499.00 0.00 L499.00 450.00 M540.00 0.00 L540.00 450.00 M581.00 0.00 L581.00 450.00 M621.00 0.00 L621.00 450.00 " style="fill:none;stroke:#D0D0D0;stroke-width:1;" /><path d="M335.24 0.00 L335.24 450.00 " style="fill:none;stroke:#000000;stroke-width:1;" /><path d="M328.74 473.40 L341.74 473.40 M328.74 427.32 L341.74 427.32 M328.74 381.24 L341.74 381.24 M328.74 335.16 L341.74 335.16 M328.74 289.08 L341.74 289.08 M328.74 243.00 L341.74 243.00 M328.74 196.92 L341.74 196.92 M328.74 150.84 L341.74 150.84 M328.74 104.76 L341.74 104.76 M328.74 58.68 L341.74 58.68 M328.74 12.60 L341.74 12.60 " style="fill:none;stroke:#000000;stroke-width:1;" /><path d="M0.00 243.00 L650.00 243.00 " style="fill:none;stroke:#000000;stroke-width:1;" /><path d="M-33.40 236.50 L-33.40 249.50 M7.56 236.50 L7.56 249.50 M48.52 236.50 L48.52 249.50 M89.48 236.50 L89.48 249.50 M130.44 236.50 L130.44 249.50 M171.40 236.50 L171.40 249.50 M212.36 236.50 L212.36 249.50 M253.32 236.50 L253.32 249.50 M294.28 236.50 L294.28 249.50 M335.24 236.50 L335.24 249.50 M376.20 236.50 L376.20 249.50 M417.16 236.50 L417.16 249.50 M458.12 236.50 L458.12 249.50 M499.08 236.50 L499.08 249.50 M540.04 236.50 L540.04 249.50 M581.00 236.50 L581.00 249.50 M621.96 236.50 L621.96 249.50 " style="fill:none;stroke:#000000;stroke-width:1;" /><text x="343.36499999999995" y="429.8200000000002" text-anchor="start" style="font:10px Droid Sans,Trebuchet MS,Arial,Helvetica,sans-serif;stroke:none;fill:#000000">-8</text><text x="343.36499999999995" y="383.7400000000002" text-anchor="start" style="font:10px Droid Sans,Trebuchet MS,Arial,Helvetica,sans-serif;stroke:none;fill:#000000">-6</text><text x="343.36499999999995" y="337.6600000000001" text-anchor="start" style="font:10px Droid Sans,Trebuchet MS,Arial,Helvetica,sans-serif;stroke:none;fill:#000000">-4</text><text x="343.36499999999995" y="291.58000000000004" text-anchor="start" style="font:10px Droid Sans,Trebuchet MS,Arial,Helvetica,sans-serif;stroke:none;fill:#000000">-2</text><text x="343.36499999999995" y="245.49999999999997" text-anchor="start" style="font:10px Droid Sans,Trebuchet MS,Arial,Helvetica,sans-serif;stroke:none;fill:#000000">0</text><text x="343.36499999999995" y="199.41999999999993" text-anchor="start" style="font:10px Droid Sans,Trebuchet MS,Arial,Helvetica,sans-serif;stroke:none;fill:#000000">2</text><text x="343.36499999999995" y="153.33999999999986" text-anchor="start" style="font:10px Droid Sans,Trebuchet MS,Arial,Helvetica,sans-serif;stroke:none;fill:#000000">4</text><text x="343.36499999999995" y="107.2599999999998" text-anchor="start" style="font:10px Droid Sans,Trebuchet MS,Arial,Helvetica,sans-serif;stroke:none;fill:#000000">6</text><text x="343.36499999999995" y="61.179999999999744" text-anchor="start" style="font:10px Droid Sans,Trebuchet MS,Arial,Helvetica,sans-serif;stroke:none;fill:#000000">8</text><text x="343.36499999999995" y="15.099999999999689" text-anchor="start" style="font:10px Droid Sans,Trebuchet MS,Arial,Helvetica,sans-serif;stroke:none;fill:#000000">10</text><text x="48.5199999999997" y="259.125" text-anchor="middle" style="font:10px Droid Sans,Trebuchet MS,Arial,Helvetica,sans-serif;stroke:none;fill:#000000">-14</text><text x="89.47999999999973" y="259.125" text-anchor="middle" style="font:10px Droid Sans,Trebuchet MS,Arial,Helvetica,sans-serif;stroke:none;fill:#000000">-12</text><text x="130.4399999999998" y="259.125" text-anchor="middle" style="font:10px Droid Sans,Trebuchet MS,Arial,Helvetica,sans-serif;stroke:none;fill:#000000">-10</text><text x="171.39999999999984" y="259.125" text-anchor="middle" style="font:10px Droid Sans,Trebuchet MS,Arial,Helvetica,sans-serif;stroke:none;fill:#000000">-8</text><text x="212.35999999999984" y="259.125" text-anchor="middle" style="font:10px Droid Sans,Trebuchet MS,Arial,Helvetica,sans-serif;stroke:none;fill:#000000">-6</text><text x="253.3199999999999" y="259.125" text-anchor="middle" style="font:10px Droid Sans,Trebuchet MS,Arial,Helvetica,sans-serif;stroke:none;fill:#000000">-4</text><text x="294.28" y="259.125" text-anchor="middle" style="font:10px Droid Sans,Trebuchet MS,Arial,Helvetica,sans-serif;stroke:none;fill:#000000">-2</text><text x="335.23999999999995" y="259.125" text-anchor="middle" style="font:10px Droid Sans,Trebuchet MS,Arial,Helvetica,sans-serif;stroke:none;fill:#000000">0</text><text x="376.20000000000005" y="259.125" text-anchor="middle" style="font:10px Droid Sans,Trebuchet MS,Arial,Helvetica,sans-serif;stroke:none;fill:#000000">2</text><text x="417.1600000000001" y="259.125" text-anchor="middle" style="font:10px Droid Sans,Trebuchet MS,Arial,Helvetica,sans-serif;stroke:none;fill:#000000">4</text><text x="458.1200000000001" y="259.125" text-anchor="middle" style="font:10px Droid Sans,Trebuchet MS,Arial,Helvetica,sans-serif;stroke:none;fill:#000000">6</text><text x="499.0800000000002" y="259.125" text-anchor="middle" style="font:10px Droid Sans,Trebuchet MS,Arial,Helvetica,sans-serif;stroke:none;fill:#000000">8</text><text x="540.0400000000002" y="259.125" text-anchor="middle" style="font:10px Droid Sans,Trebuchet MS,Arial,Helvetica,sans-serif;stroke:none;fill:#000000">10</text><text x="581.0000000000003" y="259.125" text-anchor="middle" style="font:10px Droid Sans,Trebuchet MS,Arial,Helvetica,sans-serif;stroke:none;fill:#000000">12</text><text x="621.9600000000004" y="259.125" text-anchor="middle" style="font:10px Droid Sans,Trebuchet MS,Arial,Helvetica,sans-serif;stroke:none;fill:#000000">14</text><path d="M-10.00 225.00 L-0.25 277.79 L0.75 277.78 L2.75 277.77 L4.75 277.77 L6.75 277.76 L8.75 277.75 L10.75 277.74 L12.75 277.73 L14.75 277.72 L16.75 277.71 L18.75 277.70 L20.75 277.69 L22.75 277.68 L24.75 277.67 L26.75 277.66 L28.75 277.65 L30.75 277.64 L32.75 277.63 L34.75 277.62 L36.75 277.61 L38.75 277.60 L40.75 277.59 L42.75 277.58 L44.75 277.57 L46.75 277.56 L48.75 277.55 L50.75 277.54 L52.75 277.52 L54.75 277.51 L56.75 277.50 L58.75 277.49 L60.75 277.48 L62.75 277.46 L64.75 277.45 L66.75 277.44 L68.75 277.42 L70.75 277.41 L72.75 277.40 L74.75 277.38 L76.75 277.37 L78.75 277.36 L80.75 277.34 L82.75 277.33 L84.75 277.31 L86.75 277.30 L88.75 277.28 L90.75 277.27 L92.75 277.25 L94.75 277.23 L96.75 277.22 L98.75 277.20 L100.75 277.18 L102.75 277.17 L104.75 277.15 L106.75 277.13 L108.75 277.11 L110.75 277.10 L112.75 277.08 L114.75 277.06 L116.75 277.04 L118.75 277.02 L120.75 277.00 L122.75 276.98 L124.75 276.96 L126.75 276.94 L128.75 276.91 L130.75 276.89 L132.75 276.87 L134.75 276.85 L136.75 276.82 L138.75 276.80 L140.75 276.77 L142.75 276.75 L144.75 276.72 L146.75 276.70 L148.75 276.67 L150.75 276.64 L152.75 276.62 L154.75 276.59 L156.75 276.56 L158.75 276.53 L160.75 276.50 L162.75 276.47 L164.75 276.44 L166.75 276.40 L168.75 276.37 L170.75 276.34 L172.75 276.30 L174.75 276.27 L176.75 276.23 L178.75 276.19 L180.75 276.15 L182.75 276.12 L184.75 276.07 L186.75 276.03 L188.75 275.99 L190.75 275.95 L192.75 275.90 L194.75 275.86 L196.75 275.81 L198.75 275.76 L200.75 275.71 L202.75 275.66 L204.75 275.60 L206.75 275.55 L208.75 275.49 L210.75 275.43 L212.75 275.37 L214.75 275.31 L216.75 275.25 L218.75 275.18 L220.75 275.11 L222.75 275.04 L224.75 274.97 L226.75 274.89 L228.75 274.81 L230.75 274.73 L232.75 274.65 L234.75 274.56 L236.75 274.47 L238.75 274.37 L240.75 274.27 L242.75 274.17 L244.75 274.06 L246.75 273.95 L248.75 273.83 L250.75 273.71 L252.75 273.58 L254.75 273.45 L256.75 273.31 L258.75 273.16 L260.75 273.01 L262.75 272.85 L264.75 272.68 L266.75 272.50 L268.75 272.31 L270.75 272.11 L272.75 271.89 L274.75 271.67 L276.75 271.43 L278.75 271.18 L280.75 270.91 L282.75 270.62 L284.75 270.31 L286.75 269.98 L288.75 269.63 L290.75 269.25 L292.75 268.84 L294.75 268.40 L296.75 267.92 L298.75 267.41 L300.75 266.85 L302.75 266.23 L304.75 265.56 L306.75 264.83 L308.75 264.03 L310.75 263.14 L312.75 262.17 L314.75 261.10 L316.62 260.00 L318.32 258.91 L319.87 257.83 L321.31 256.76 L322.66 255.69 L323.92 254.63 L325.11 253.58 L326.24 252.54 L327.33 251.50 L328.37 250.46 L329.37 249.43 L330.35 248.40 L331.30 247.38 L332.23 246.36 L333.14 245.35 L334.05 244.34 L334.94 243.34 L335.83 242.34 L336.72 241.34 L337.61 240.35 L338.51 239.36 L339.41 238.37 L340.33 237.39 L341.27 236.41 L342.22 235.43 L343.20 234.46 L344.21 233.49 L345.25 232.53 L346.33 231.57 L347.45 230.61 L348.63 229.66 L349.86 228.71 L351.17 227.77 L352.55 226.83 L354.03 225.90 L355.60 224.97 L357.31 224.05 L359.15 223.13 L361.15 222.22 L363.15 221.40 L365.15 220.64 L367.15 219.96 L369.15 219.33 L371.15 218.75 L373.15 218.22 L375.15 217.73 L377.15 217.28 L379.15 216.86 L381.15 216.48 L383.15 216.12 L385.15 215.78 L387.15 215.47 L389.15 215.17 L391.15 214.90 L393.15 214.64 L395.15 214.40 L397.15 214.17 L399.15 213.95 L401.15 213.75 L403.15 213.56 L405.15 213.37 L407.15 213.20 L409.15 213.04 L411.15 212.88 L413.15 212.73 L415.15 212.59 L417.15 212.45 L419.15 212.32 L421.15 212.20 L423.15 212.08 L425.15 211.97 L427.15 211.86 L429.15 211.76 L431.15 211.66 L433.15 211.56 L435.15 211.47 L437.15 211.38 L439.15 211.29 L441.15 211.21 L443.15 211.13 L445.15 211.05 L447.15 210.98 L449.15 210.91 L451.15 210.84 L453.15 210.77 L455.15 210.71 L457.15 210.64 L459.15 210.58 L461.15 210.52 L463.15 210.47 L465.15 210.41 L467.15 210.36 L469.15 210.31 L471.15 210.25 L473.15 210.21 L475.15 210.16 L477.15 210.11 L479.15 210.07 L481.15 210.02 L483.15 209.98 L485.15 209.94 L487.15 209.90 L489.15 209.86 L491.15 209.82 L493.15 209.78 L495.15 209.74 L497.15 209.71 L499.15 209.67 L501.15 209.64 L503.15 209.61 L505.15 209.57 L507.15 209.54 L509.15 209.51 L511.15 209.48 L513.15 209.45 L515.15 209.42 L517.15 209.39 L519.15 209.36 L521.15 209.34 L523.15 209.31 L525.15 209.28 L527.15 209.26 L529.15 209.23 L531.15 209.21 L533.15 209.18 L535.15 209.16 L537.15 209.14 L539.15 209.12 L541.15 209.09 L543.15 209.07 L545.15 209.05 L547.15 209.03 L549.15 209.01 L551.15 208.99 L553.15 208.97 L555.15 208.95 L557.15 208.93 L559.15 208.91 L561.15 208.89 L563.15 208.87 L565.15 208.86 L567.15 208.84 L569.15 208.82 L571.15 208.80 L573.15 208.79 L575.15 208.77 L577.15 208.75 L579.15 208.74 L581.15 208.72 L583.15 208.71 L585.15 208.69 L587.15 208.68 L589.15 208.66 L591.15 208.65 L593.15 208.63 L595.15 208.62 L597.15 208.61 L599.15 208.59 L601.15 208.58 L603.15 208.57 L605.15 208.55 L607.15 208.54 L609.15 208.53 L611.15 208.52 L613.15 208.50 L615.15 208.49 L617.15 208.48 L619.15 208.47 L621.15 208.46 L623.15 208.45 L625.15 208.43 L627.15 208.42 L629.15 208.41 L631.15 208.40 L633.15 208.39 L635.15 208.38 L637.15 208.37 L639.15 208.36 L641.15 208.35 L643.15 208.34 L645.15 208.33 L647.15 208.32 L649.15 208.31 " style="fill:none;stroke:#000000;stroke-width:1;" /></g></svg>