<?xml version="1.0" standalone="no"?><!DOCTYPE svg PUBLIC "-//W3C//DTD SVG 1.1//EN" "http://www.w3.org/Graphics/SVG/1.1/DTD/svg11.dtd"><svg xmlns="http://www.w3.org/2000/svg" viewBox="0 0 650 450" version="1.1"><clipPath id="box"><rect x="0" y="0" width="650" height="450" style="fill:none;stroke:none;" /></clipPath><g clip-path="url(#box)"><rect x="0.00" y="0.00" width="650.00" height="450.00" style="fill:#FAF5F5;stroke:none;" /><path d="M0.00 426.00 L650.00 426.00 M0.00 380.00 L650.00 380.00 M0.00 334.00 L650.00 334.00 M0.00 288.00 L650.00 288.00 M0.00 241.00 L650.00 241.00 M0.00 195.00 L650.00 195.00 M0.00 149.00 L650.00 149.00 M0.00 103.00 L650.00 103.00 M0.00 57.00 L650.00 57.00 M0.00 11.00 L650.00 11.00 M6.00 0.00 L6.00 450.00 M47.00 0.00 L47.00 450.00 M88.00 0.00 L88.00 450.00 M129.00 0.00 L129.00 450.00 M170.00 0.00 L170.00 450.00 M211.00 0.00 L211.00 450.00 M252.00 0.00 L252.00 450.00 M293.00 0.00 L293.00 450.00 M334.00 0.00 L334.00 450.00 M375.00 0.00 L375.00 450.00 M416.00 0.00 L416.00 450.00 M457.00 0.00 L457.00 450.00 M498.00 0.00 L498.00 450.00 M539.00 0.00 L539.00 450.00 M580.00 0.00 L580.00 450.00 M620.00 0.00 L620.00 450.00 " style="fill:none;stroke:#D0D0D0;stroke-width:1;" /><path d="M334.24 0.00 L334.24 450.00 " style="fill:none;stroke:#000000;stroke-width:1;" /><path d="M327.74 472.40 L340.74 472.40 M327.74 426.32 L340.74 426.32 M327.74 380.24 L340.74 380.24 M327.74 334.16 L340.74 334.16 M327.74 288.08 L340.74 288.08 M327.74 242.00 L340.74 242.00 M327.74 195.92 L340.74 195.92 M327.74 149.84 L340.74 149.84 M327.74 103.76 L340.74 103.76 M327.74 57.68 L340.74 57.68 M327.74 11.60 L340.74 11.60 " style="fill:none;stroke:#000000;stroke-width:1;" /><path d="M0.00 242.00 L650.00 242.00 " style="fill:none;stroke:#000000;stroke-width:1;" /><path d="M-34.40 235.50 L-34.40 248.50 M6.56 235.50 L6.56 248.50 M47.52 235.50 L47.52 248.50 M88.48 235.50 L88.48 248.50 M129.44 235.50 L129.44 248.50 M170.40 235.50 L170.40 248.50 M211.36 235.50 L211.36 248.50 M252.32 235.50 L252.32 248.50 M293.28 235.50 L293.28 248.50 M334.24 235.50 L334.24 248.50 M375.20 235.50 L375.20 248.50 M416.16 235.50 L416.16 248.50 M457.12 235.50 L457.12 248.50 M498.08 235.50 L498.08 248.50 M539.04 235.50 L539.04 248.50 M580.00 235.50 L580.00 248.50 M620.96 235.50 L620.96 248.50 " style="fill:none;stroke:#000000;stroke-width:1;" /><text x="342.365" y="428.8200000000002" text-anchor="start" style="font:10px Droid Sans,Trebuchet MS,Arial,Helvetica,sans-serif;stroke:none;fill:#000000">-8</text><text x="342.365" y="382.7400000000001" text-anchor="start" style="font:10px Droid Sans,Trebuchet MS,Arial,Helvetica,sans-serif;stroke:none;fill:#000000">-6</text><text x="342.365" y="336.6600000000001" text-anchor="start" style="font:10px Droid Sans,Trebuchet MS,Arial,Helvetica,sans-serif;stroke:none;fill:#000000">-4</text><text x="342.365" y="290.58000000000004" text-anchor="start" style="font:10px Droid Sans,Trebuchet MS,Arial,Helvetica,sans-serif;stroke:none;fill:#000000">-2</text><text x="342.365" y="244.49999999999997" text-anchor="start" style="font:10px Droid Sans,Trebuchet MS,Arial,Helvetica,sans-serif;stroke:none;fill:#000000">0</text><text x="342.365" y="198.4199999999999" text-anchor="start" style="font:10px Droid Sans,Trebuchet MS,Arial,Helvetica,sans-serif;stroke:none;fill:#000000">2</text><text x="342.365" y="152.33999999999983" text-anchor="start" style="font:10px Droid Sans,Trebuchet MS,Arial,Helvetica,sans-serif;stroke:none;fill:#000000">4</text><text x="342.365" y="106.25999999999978" text-anchor="start" style="font:10px Droid Sans,Trebuchet MS,Arial,Helvetica,sans-serif;stroke:none;fill:#000000">6</text><text x="342.365" y="60.17999999999972" text-anchor="start" style="font:10px Droid Sans,Trebuchet MS,Arial,Helvetica,sans-serif;stroke:none;fill:#000000">8</text><text x="342.365" y="14.09999999999967" text-anchor="start" style="font:10px Droid Sans,Trebuchet MS,Arial,Helvetica,sans-serif;stroke:none;fill:#000000">10</text><text x="47.51999999999969" y="258.125" text-anchor="middle" style="font:10px Droid Sans,Trebuchet MS,Arial,Helvetica,sans-serif;stroke:none;fill:#000000">-14</text><text x="88.47999999999973" y="258.125" text-anchor="middle" style="font:10px Droid Sans,Trebuchet MS,Arial,Helvetica,sans-serif;stroke:none;fill:#000000">-12</text><text x="129.4399999999998" y="258.125" text-anchor="middle" style="font:10px Droid Sans,Trebuchet MS,Arial,Helvetica,sans-serif;stroke:none;fill:#000000">-10</text><text x="170.39999999999984" y="258.125" text-anchor="middle" style="font:10px Droid Sans,Trebuchet MS,Arial,Helvetica,sans-serif;stroke:none;fill:#000000">-8</text><text x="211.3599999999999" y="258.125" text-anchor="middle" style="font:10px Droid Sans,Trebuchet MS,Arial,Helvetica,sans-serif;stroke:none;fill:#000000">-6</text><text x="252.3199999999999" y="258.125" text-anchor="middle" style="font:10px Droid Sans,Trebuchet MS,Arial,Helvetica,sans-serif;stroke:none;fill:#000000">-4</text><text x="293.28" y="258.125" text-anchor="middle" style="font:10px Droid Sans,Trebuchet MS,Arial,Helvetica,sans-serif;stroke:none;fill:#000000">-2</text><text x="334.24" y="258.125" text-anchor="middle" style="font:10px Droid Sans,Trebuchet MS,Arial,Helvetica,sans-serif;stroke:none;fill:#000000">0</text><text x="375.20000000000005" y="258.125" text-anchor="middle" style="font:10px Droid Sans,Trebuchet MS,Arial,Helvetica,sans-serif;stroke:none;fill:#000000">2</text><text x="416.16000000000014" y="258.125" text-anchor="middle" style="font:10px Droid Sans,Trebuchet MS,Arial,Helvetica,sans-serif;stroke:none;fill:#000000">4</text><text x="457.1200000000002" y="258.125" text-anchor="middle" style="font:10px Droid Sans,Trebuchet MS,Arial,Helvetica,sans-serif;stroke:none;fill:#000000">6</text><text x="498.0800000000002" y="258.125" text-anchor="middle" style="font:10px Droid Sans,Trebuchet MS,Arial,Helvetica,sans-serif;stroke:none;fill:#000000">8</text><text x="539.0400000000003" y="258.125" text-anchor="middle" style="font:10px Droid Sans,Trebuchet MS,Arial,Helvetica,sans-serif;stroke:none;fill:#000000">10</text><text x="580.0000000000003" y="258.125" text-anchor="middle" style="font:10px Droid Sans,Trebuchet MS,Arial,Helvetica,sans-serif;stroke:none;fill:#000000">12</text><text x="620.9600000000003" y="258.125" text-anchor="middle" style="font:10px Droid Sans,Trebuchet MS,Arial,Helvetica,sans-serif;stroke:none;fill:#000000">14</text><path d="M-10.00 225.00 L-0.25 195.92 L0.75 195.92 L2.75 195.92 L4.75 195.92 L6.75 195.92 L8.75 195.92 L10.75 195.92 L12.75 195.92 L14.75 195.92 L16.75 195.92 L18.75 195.92 L20.75 195.92 L22.75 195.92 L24.75 195.92 L26.75 195.92 L28.75 195.92 L30.75 195.92 L32.75 195.92 L34.75 195.92 L36.75 195.92 L38.75 195.92 L40.75 195.92 L42.75 195.92 L44.75 195.92 L46.75 195.92 L48.75 195.92 L50.75 195.92 L52.75 195.92 L54.75 195.92 L56.75 195.92 L58.75 195.92 L60.75 195.92 L62.75 195.92 L64.75 195.92 L66.75 195.92 L68.75 195.92 L70.75 195.92 L72.75 195.92 L74.75 195.92 L76.75 195.92 L78.75 195.92 L80.75 195.92 L82.75 195.92 L84.75 195.92 L86.75 195.92 L88.75 195.92 L90.75 195.92 L92.75 195.92 L94.75 195.92 L96.75 195.92 L98.75 195.92 L100.75 195.92 L102.75 195.92 L104.75 195.92 L106.75 195.92 L108.75 195.92 L110.75 195.92 L112.75 195.92 L114.75 195.92 L116.75 195.92 L118.75 195.92 L120.75 195.92 L122.75 195.92 L124.75 195.92 L126.75 195.92 L128.75 195.92 L130.75 195.92 L132.75 195.92 L134.75 195.92 L136.75 195.92 L138.75 195.92 L140.75 195.92 L142.75 195.92 L144.75 195.92 L146.75 195.92 L148.75 195.92 L150.75 195.92 L152.75 195.92 L154.75 195.92 L156.75 195.92 L158.75 195.92 L160.75 195.92 L162.75 195.92 L164.75 195.92 L166.75 195.92 L168.75 195.92 L170.75 195.92 L172.75 195.92 L174.75 195.92 L176.75 195.92 L178.75 195.92 L180.75 195.92 L182.75 195.92 L184.75 195.92 L186.75 195.92 L188.75 195.92 L190.75 195.92 L192.75 195.92 L194.75 195.92 L196.75 195.92 L198.75 195.92 L200.75 195.92 L202.75 195.92 L204.75 195.92 L206.75 195.92 L208.75 195.92 L210.75 195.92 L212.75 195.92 L214.75 195.92 L216.75 195.92 L218.75 195.92 L220.75 195.92 L222.75 195.92 L224.75 195.92 L226.75 195.92 L228.75 195.92 L230.75 195.92 L232.75 195.92 L234.75 195.92 L236.75 195.92 L238.75 195.92 L240.75 195.92 L242.75 195.92 L244.75 195.92 L246.75 195.92 L248.75 195.92 L250.75 195.92 L252.75 195.92 L254.75 195.92 L256.75 195.92 L258.75 195.92 L260.75 195.92 L262.75 195.92 L264.75 195.92 L266.75 195.92 L268.75 195.92 L270.75 195.92 L272.75 195.92 L274.75 195.92 L276.75 195.91 L278.75 195.91 L280.75 195.89 L282.75 195.88 L284.75 195.85 L286.75 195.81 L288.75 195.75 L290.75 195.67 L292.75 195.54 L294.75 195.36 L296.75 195.11 L298.75 194.78 L300.75 194.33 L302.75 193.75 L304.75 193.02 L306.75 192.12 L308.75 191.03 L310.58 189.85 L312.14 188.73 L313.53 187.63 L314.80 186.56 L315.98 185.51 L317.11 184.47 L318.20 183.45 L319.25 182.43 L320.30 181.43 L321.33 180.43 L322.37 179.45 L323.43 178.48 L324.53 177.52 L325.67 176.58 L326.88 175.67 L328.21 174.79 L329.73 173.97 L331.58 173.27 L333.58 172.90 L335.58 172.98 L337.58 173.48 L339.58 174.39 L341.58 175.65 L343.16 176.86 L344.47 177.97 L345.66 179.03 L346.77 180.07 L347.84 181.10 L348.89 182.11 L349.92 183.10 L350.96 184.09 L352.01 185.07 L353.09 186.04 L354.19 187.00 L355.35 187.95 L356.56 188.89 L357.85 189.82 L359.24 190.73 L360.77 191.62 L362.49 192.48 L364.48 193.32 L366.48 193.99 L368.48 194.51 L370.48 194.91 L372.48 195.21 L374.48 195.43 L376.48 195.59 L378.48 195.70 L380.48 195.78 L382.48 195.83 L384.48 195.86 L386.48 195.89 L388.48 195.90 L390.48 195.91 L392.48 195.91 L394.48 195.92 L396.48 195.92 L398.48 195.92 L400.48 195.92 L402.48 195.92 L404.48 195.92 L406.48 195.92 L408.48 195.92 L410.48 195.92 L412.48 195.92 L414.48 195.92 L416.48 195.92 L418.48 195.92 L420.48 195.92 L422.48 195.92 L424.48 195.92 L426.48 195.92 L428.48 195.92 L430.48 195.92 L432.48 195.92 L434.48 195.92 L436.48 195.92 L438.48 195.92 L440.48 195.92 L442.48 195.92 L444.48 195.92 L446.48 195.92 L448.48 195.92 L450.48 195.92 L452.48 195.92 L454.48 195.92 L456.48 195.92 L458.48 195.92 L460.48 195.92 L462.48 195.92 L464.48 195.92 L466.48 195.92 L468.48 195.92 L470.48 195.92 L472.48 195.92 L474.48 195.92 L476.48 195.92 L478.48 195.92 L480.48 195.92 L482.48 195.92 L484.48 195.92 L486.48 195.92 L488.48 195.92 L490.48 195.92 L492.48 195.92 L494.48 195.92 L496.48 195.92 L498.48 195.92 L500.48 195.92 L502.48 195.92 L504.48 195.92 L506.48 195.92 L508.48 195.92 L510.48 195.92 L512.48 195.92 L514.48 195.92 L516.48 195.92 L518.48 195.92 L520.48 195.92 L522.48 195.92 L524.48 195.92 L526.48 195.92 L528.48 195.92 L530.48 195.92 L532.48 195.92 L534.48 195.92 L536.48 195.92 L538.48 195.92 L540.48 195.92 L542.48 195.92 L544.48 195.92 L546.48 195.92 L548.48 195.92 L550.48 195.92 L552.48 195.92 L554.48 195.92 L556.48 195.92 L558.48 195.92 L560.48 195.92 L562.48 195.92 L564.48 195.92 L566.48 195.92 L568.48 195.92 L570.48 195.92 L572.48 195.92 L574.48 195.92 L576.48 195.92 L578.48 195.92 L580.48 195.92 L582.48 195.92 L584.48 195.92 L586.48 195.92 L588.48 195.92 L590.48 195.92 L592.48 195.92 L594.48 195.92 L596.48 195.92 L598.48 195.92 L600.48 195.92 L602.48 195.92 L604.48 195.92 L606.48 195.92 L608.48 195.92 L610.48 195.92 L612.48 195.92 L614.48 195.92 L616.48 195.92 L618.48 195.92 L620.48 195.92 L622.48 195.92 L624.48 195.92 L626.48 195.92 L628.48 195.92 L630.48 195.92 L632.48 195.92 L634.48 195.92 L636.48 195.92 L638.48 195.92 L640.48 195.92 L642.48 195.92 L644.48 195.92 L646.48 195.92 L648.48 195.92 " style="fill:none;stroke:#000000;stroke-width:1;" /></g></svg>